<?xml version="1.0" standalone="no"?>
<!DOCTYPE svg PUBLIC "-//W3C//DTD SVG 1.1//EN" "http://www.w3.org/Graphics/SVG/1.1/DTD/svg11.dtd" >
<svg xmlns="http://www.w3.org/2000/svg">
<metadata></metadata>
<defs>
<font id="aldosemibold" horiz-adv-x="897" >
<font-face units-per-em="2048" ascent="1638" descent="-410" />
<missing-glyph horiz-adv-x="409" />
<glyph horiz-adv-x="2048" />
<glyph horiz-adv-x="2048" />
<glyph unicode="&#xd;" horiz-adv-x="1024" />
<glyph unicode=" "  horiz-adv-x="409" />
<glyph unicode="&#x09;" horiz-adv-x="409" />
<glyph unicode="&#xa0;" horiz-adv-x="409" />
<glyph unicode="!" horiz-adv-x="602" d="M260 0v182h178v-182h-178zM262 379v1110h174v-1110h-174z" />
<glyph unicode="&#x22;" horiz-adv-x="1024" d="M-2 1198v57q35 4 53.5 18.5t27.5 37t10 52.5t-1 60h-57q-16 0 -31 -2v181h176v-181q0 -104 -44 -163.5t-134 -59.5zM274 1198v57q35 4 53.5 18.5t28 37t10.5 52.5t-4 60h-55q-16 0 -31 -2v181h177v-181q0 -104 -44 -163.5t-135 -59.5z" />
<glyph unicode="#" horiz-adv-x="983" d="M0 920l55 145h131l56 143h-131l55 146h131l49 131h146l-50 -131h144l51 131h145q-10 -27 -22 -59.5t-29 -71.5h131l-55 -146h-131q-14 -35 -27.5 -70.5t-27.5 -72.5h131l-56 -145h-131q-14 -35 -26.5 -68t-22.5 -64h-145q12 35 25.5 72t23.5 60h-144q-14 -35 -26 -68 t-25 -64h-145q14 35 27.5 72t23.5 60h-131zM332 1065h143l55 143h-143q-14 -35 -27.5 -70.5t-27.5 -72.5z" />
<glyph unicode="$" horiz-adv-x="1024" d="M0 233v52h172v-19q0 -16 5 -36.5t19.5 -39t43 -33t73.5 -18.5v500q-23 8 -45 16.5t-45 14.5q-8 4 -12 4q-117 35 -164 100.5t-47 138.5v13v37v249v43q0 23 7 62t39 79t94.5 70.5t172.5 34.5v101h72v-101q109 -4 171 -34.5t93 -70.5t39 -79t8 -62v-53h-174v23 q0 16 -5 35.5t-19.5 37t-41 31.5t-71.5 19v-560q23 -10 45.5 -17t44.5 -15q35 -8 70 -25q37 -12 64.5 -35.5t47.5 -54.5q39 -57 39 -127v-25v-204v-52q0 -23 -8 -62.5t-39 -78.5t-93 -69.5t-171 -36.5v-99h-72v99q-111 4 -173 34.5t-94 70.5t-39 80t-7 62zM172 944 q0 -27 15.5 -59.5t68.5 -50.5q8 -4 20.5 -8.5t24.5 -8.5q4 -2 6 -2t6 -2v535q-45 -4 -73.5 -18.5t-43 -33t-19.5 -39t-5 -36.5v-19v-239v-19zM385 141q45 4 71.5 18.5t41 32t19.5 37t5 33.5v23v180v20q0 25 -14 59t-68 52q-10 4 -25.5 9t-29.5 9v-473z" />
<glyph unicode="%" horiz-adv-x="1290" d="M102 971v362q0 18 7.5 44t30 50.5t67.5 42t121 17.5t121 -17.5t67.5 -42t29.5 -50t7 -44.5v-362q0 -18 -7 -45t-29.5 -51.5t-68 -42t-120.5 -17.5q-76 0 -121 17.5t-67.5 42t-30 51t-7.5 45.5zM199 -14l735 1517h153q-43 -86 -101 -206.5t-125.5 -259t-138.5 -286 t-139.5 -286.5t-128 -263t-104.5 -216h-151zM223 989q0 -25 19.5 -47t81.5 -22q35 0 56 7t32.5 17t15.5 22.5t4 20.5v328q0 10 -4 22.5t-15.5 22.5t-33 17t-55.5 7q-61 0 -81 -23.5t-20 -47.5v-324zM741 158v362q0 18 7.5 44t30 50.5t67.5 42t121 17.5t121 -17.5t67.5 -42 t29.5 -50t7 -44.5v-362q0 -18 -7 -45t-29.5 -51.5t-68 -42t-120.5 -17.5q-76 0 -121 17.5t-67.5 42t-30 51t-7.5 45.5zM862 176q0 -23 18.5 -46.5t82.5 -23.5q35 0 56 7.5t32.5 17.5t15.5 22.5t4 20.5v328q0 10 -4 22.5t-15.5 22.5t-33 17t-55.5 7q-63 0 -82 -23.5 t-19 -47.5v-324z" />
<glyph unicode="&#x26;" horiz-adv-x="1517" d="M221 307v92q0 100 43 188.5t139 141.5l60 33q-12 10 -23.5 22.5t-21.5 22.5l-10 8q-39 43 -52.5 101.5t-13.5 138.5v200q0 10 2 27.5t6 36.5q8 29 25.5 58.5t51.5 56t86 45t130 22.5q10 2 19 2h28q10 0 28.5 -1t20.5 -1q78 -4 130.5 -22.5t85 -45t50 -56t25.5 -56.5 q6 -20 7 -37.5t1 -28.5v-161q0 -98 -32.5 -162t-110.5 -109l-168 -96l287 -301v139l147 101v-215q0 -41 -2 -78t-8 -72q61 -61 113.5 -115.5t93.5 -95.5q47 -49 84 -90h-219q-33 33 -68 65.5t-68 67.5q-49 -68 -142 -105.5t-253 -37.5q-293 0 -405 131q-41 47 -53.5 97 t-12.5 89zM385 360q0 -6 2 -18q2 -18 14.5 -60t47.5 -77q79 -80 249 -80q113 0 173.5 36t89.5 99l-197.5 197.5t-183.5 185.5q-23 -12 -43 -22q-16 -10 -33 -20.5t-27 -16.5q-53 -41 -72.5 -96.5t-19.5 -118.5v-9zM516 1006q4 -55 27.5 -87t56.5 -65l10 -10l185 102 q47 33 59 75t12 103v111q-2 4 -2 10t-2 12q-10 33 -46 62t-126 29t-125 -29t-45 -62q-2 -6 -3 -17t-1 -15v-219z" />
<glyph unicode="(" horiz-adv-x="602" d="M-2 543q0 172 53 379q20 78 49 160.5t64 168.5q43 98 82 172t61 115h152l-23 -37l-13 -23q-13 -24 -34.5 -64t-49.5 -97t-56 -125q-27 -61 -51.5 -137t-44 -160t-32 -173t-12.5 -179q0 -88 12.5 -178.5t32 -174.5t44 -159.5t51.5 -136.5q29 -68 56.5 -125.5t49 -97.5 t34.5 -63l13 -24l23 -39h-152q-23 41 -61.5 115t-81.5 174q-35 86 -63.5 168t-49.5 162q-53 207 -53 379z" />
<glyph unicode=")" horiz-adv-x="645" d="M41 -455l22 39l13 24q14 23 35.5 63t49 97.5t56.5 125.5q27 61 51.5 136.5t44 159.5t31.5 174.5t12 178.5q0 90 -12 179t-31.5 173t-44 159.5t-51.5 137.5q-29 68 -56.5 125t-49 97t-35.5 64l-13 23l-22 37h152q23 -41 62.5 -114.5t80.5 -172.5q70 -167 115 -329 q51 -199 51 -379t-51 -379q-23 -80 -51.5 -162t-63.5 -168q-43 -100 -82 -174t-61 -115h-152z" />
<glyph unicode="*" horiz-adv-x="768" d="M0 1221l49 131l94 -37q35 -14 65 -24.5t34 -12.5v207h139h4v-207q4 2 34 12t64 25l95 37l55 -131q-55 -18 -98 -35q-37 -14 -68 -24.5t-35 -12.5q2 -2 20.5 -28.5t41.5 -57.5q27 -37 59 -82l-113 -84l-125 176q-2 -2 -20.5 -29.5t-40.5 -60.5l-57 -86l-121 84l119 168 q-2 2 -34 12t-67 25q-41 16 -94 35z" />
<glyph unicode="+" horiz-adv-x="851" d="M0 438v146h145h551v-146h-696zM281 158v145v551h145v-696h-145z" />
<glyph unicode="," horiz-adv-x="256" d="M-29 0v180h179v-180q0 -104 -44.5 -163.5t-134.5 -59.5v57q35 2 53.5 17.5t27.5 38t10 51t-3 59.5h-88z" />
<glyph unicode="-" d="M0 438v146h696v-146h-696z" />
<glyph unicode="." horiz-adv-x="376" d="M0 0v180h176v-180h-176z" />
<glyph unicode="/" horiz-adv-x="903" d="M0 -14l551 1517h151q-31 -86 -74.5 -206.5t-94 -259t-103.5 -286t-104.5 -286.5t-96.5 -263t-77 -216h-152z" />
<glyph unicode="0" d="M0 233v52v917v53q0 23 8 65t43 83t104.5 70.5t192.5 29.5t192.5 -29.5t104.5 -70.5t43 -83t8 -65v-20v-981v-21q0 -25 -8 -65.5t-43 -81.5t-104.5 -70.5t-192.5 -29.5t-192.5 29.5t-104.5 70.5t-43 83t-8 64zM172 266q0 -18 5 -39.5t23.5 -41t52.5 -33t89 -13.5 q59 0 95 13.5t54.5 32t24.5 40t6 37.5v23h2v917h-2v23q0 18 -6 39.5t-24.5 40t-54.5 32t-95 13.5q-55 0 -89 -13.5t-52.5 -34t-23.5 -42t-5 -39.5v-19v-917v-19z" />
<glyph unicode="1" horiz-adv-x="722" d="M0 1090v176q10 4 19.5 6t19.5 6l12 4q35 12 77 26.5t73 24.5q16 6 35.5 13.5t29.5 11.5q53 18 68.5 51t15.5 59v19h172v-1487h-172v1212q-12 -4 -23.5 -8t-25.5 -8q-41 -14 -89 -30.5t-85 -30.5q-12 -4 -24.5 -8.5t-20.5 -8.5q-18 -6 -44 -15t-38 -13z" />
<glyph unicode="2" d="M0 0v125v367v49v6v14q4 57 37 107q43 66 115 90q31 16 69 24q41 14 89 31.5t85 30.5q12 4 24.5 8t20.5 8q53 18 67.5 51t14.5 60v18v211v19q0 18 -5 39.5t-22.5 42t-51 34t-91.5 13.5q-57 0 -93 -13.5t-55.5 -32t-25.5 -40t-6 -39.5v-23h-172v51q0 25 8 67t43 83 t104.5 70.5t192.5 29.5t192.5 -30.5t104.5 -71.5t43 -83t8 -65v-41v-221v-49v-16q-6 -72 -54 -132.5t-159 -91.5q-4 0 -12 -4q-35 -12 -77 -26.5t-75 -24.5q-14 -4 -33.5 -12t-29.5 -12q-53 -16 -67.5 -49t-16.5 -58v-371h395h129v-143h-696z" />
<glyph unicode="3" horiz-adv-x="899" d="M0 233v52h174v-23q0 -16 6 -37.5t25.5 -40t55.5 -32t93 -13.5q55 0 89 13.5t52.5 33t23.5 41t5 39.5v19v235v21q0 16 -5 38.5t-23.5 42t-51 33t-88.5 13.5h-2h-180v155h180h2q55 0 88 13.5t51.5 33t23.5 42t5 38.5v21v231v19q0 18 -5 39.5t-23.5 42t-52 34t-89.5 13.5 q-57 0 -93 -13.5t-55.5 -32t-25.5 -40t-6 -39.5v-23h-174v51q0 25 8 67t43 83t104.5 70.5t192.5 29.5t192.5 -30.5t104.5 -71.5t43 -83t8 -65v-41v-286v-8q0 -12 -2 -33t-9 -44.5t-22.5 -48t-41.5 -47.5q27 -23 42 -47t23 -47.5t10 -44t2 -33.5v-53h-2v-246v-41 q0 -23 -8 -64.5t-43 -82.5t-104.5 -70.5t-192.5 -29.5t-192.5 29.5t-104.5 70.5t-43 82t-8 65z" />
<glyph unicode="4" horiz-adv-x="899" d="M0 940v49v496h174v-512v-2q0 -27 14.5 -59.5t67.5 -51.5q10 -4 22.5 -8t24.5 -8q35 -12 83 -29.5t89 -32.5q14 -4 26.5 -7t22.5 -7v717h174v-1485h-174v492v20q0 25 -15 57.5t-69 51.5q-10 4 -29.5 11t-33.5 13q-33 10 -75 24.5t-77 26.5q-8 4 -12 4q-117 33 -165 99.5 t-48 140.5z" />
<glyph unicode="5" d="M0 231v54h172v-23q0 -18 6 -39.5t25.5 -40t55.5 -32t93 -13.5t91 13.5t52.5 33t23.5 41t5 39.5v21v503v19q0 18 -5 39.5t-23.5 41t-52 33t-89.5 13.5q-57 0 -93 -13.5t-55.5 -32t-25.5 -40t-6 -37.5v-23h-2h-172v572v125h696v-144h-129h-395v-276q74 22 176 22 q123 0 192.5 -29.5t104.5 -70.5t43 -83t8 -64v-52v-516v-41q0 -23 -8 -64.5t-43 -82.5t-104.5 -70.5t-192.5 -29.5t-192.5 29.5t-104.5 70.5t-43 82t-8 65z" />
<glyph unicode="6" horiz-adv-x="899" d="M0 233v41v652v18v49v17v202v41q0 23 8 65t44 83t105.5 71.5t192.5 30.5t192.5 -29.5t104.5 -70.5t43 -83t8 -67v-51h-174v23q0 18 -6 39.5t-25.5 40t-54.5 32t-94 13.5q-55 0 -89 -13.5t-52.5 -34t-23.5 -42t-5 -39.5v-19v-192v-17v-18q0 -27 15.5 -59.5t66.5 -51.5 q12 -4 31.5 -11t34.5 -11q33 -12 73.5 -26.5t77.5 -27.5q4 -2 6 -2t6 -2q111 -31 159 -91t52 -130h2v-12v-6v-49v-211v-52q0 -25 -8 -65.5t-43 -81.5t-104.5 -70.5t-192.5 -29.5t-192.5 29.5t-105.5 70.5t-44 83t-8 64zM174 266q0 -18 5 -39.5t23.5 -41t52.5 -33t89 -13.5 q59 0 94 13.5t54.5 32t25.5 40t6 37.5v12v244q0 25 -15 57.5t-67 49.5q-10 4 -22 8t-25 8q-37 14 -84 30.5t-88 30.5q-14 4 -26.5 8.5t-22.5 8.5v-434v-19z" />
<glyph unicode="7" d="M0 0v494v49v18h2q4 70 52 130.5t159 90.5q4 2 6 2t6 2q37 12 78 27.5t74 26.5q14 4 33.5 11t31.5 11q51 18 66.5 50t15.5 59v368h-395h-129v146h696v-125v-369v-49v-6v-12q-4 -59 -37 -109q-41 -61 -114 -90q-31 -16 -70 -25q-41 -14 -89 -30.5t-83 -28.5 q-12 -4 -24.5 -8t-22.5 -8q-53 -18 -67.5 -52t-14.5 -59v-20v-494h-174z" />
<glyph unicode="8" d="M0 233v52v235v53q0 29 13.5 78t64.5 94q-27 23 -42.5 47.5t-23.5 47t-10 43t-2 35.5v53v231v51q0 25 8 67t43 83t104.5 70.5t192.5 29.5t192.5 -30.5t104.5 -71.5t43 -83t8 -65v-41v-286v-8q0 -12 -2 -33t-9 -44.5t-22.5 -48t-41.5 -47.5q27 -23 42 -47t22 -47.5t9 -44 t2 -33.5v-53v-246v-41q0 -23 -8 -64.5t-43 -82.5t-104.5 -70.5t-192.5 -29.5t-192.5 29.5t-104.5 70.5t-43 82t-8 65zM174 262q0 -16 6 -37.5t25.5 -40t55.5 -32t93 -13.5q55 0 89 13.5t52.5 33t23.5 41t5 39.5v19v235v21q0 18 -5 39.5t-23.5 41t-52 33t-89.5 13.5 q-57 0 -93 -13.5t-55.5 -32t-25.5 -40t-6 -39.5v-23v-246v-12zM174 944q0 -18 7 -38.5t26.5 -39t54.5 -31t92 -12.5q55 0 89 13.5t52.5 33t23.5 42t5 38.5v21v231v19q0 18 -5 39.5t-23.5 42t-52.5 34t-89 13.5q-57 0 -93 -13.5t-55.5 -32t-25.5 -40t-6 -39.5v-13v-268z" />
<glyph unicode="9" d="M0 233v52h172v-23q0 -16 6 -37.5t25.5 -40t55.5 -32t93 -13.5t91 13.5t51.5 33t22.5 41t5 39.5v19v16q0 27 -14 59.5t-68 51.5q-12 4 -31.5 11t-33.5 11q-33 10 -74 24.5t-78 28.5q-4 0 -12 5q-117 33 -164 98t-47 141v47v424v51q0 25 8 67t43 83t104.5 70.5t192.5 29.5 t192.5 -30.5t104.5 -71.5t43 -83t8 -65v-41v-649v-86v-145v-2v-49v-21v-27q0 -23 -8 -64.5t-43 -82.5t-104.5 -70.5t-192.5 -29.5t-192.5 29.5t-104.5 70.5t-43 82t-8 65zM172 758q2 -27 17.5 -58.5t66.5 -50.5q8 -4 20.5 -8t24.5 -8q37 -12 85 -28.5t89 -31.5 q12 -4 24.5 -8t22.5 -8v6v639v19q0 18 -5 39.5t-22.5 42t-51.5 34t-91 13.5t-93 -13.5t-55.5 -32t-25.5 -40t-6 -39.5v-13v-454z" />
<glyph unicode=":" horiz-adv-x="376" d="M0 0v180h176v-180h-176zM0 885v180h176v-180h-176z" />
<glyph unicode=";" horiz-adv-x="378" d="M0 -166q68 6 81 54.5t7 111.5h-86v180h176v-180q0 -104 -44 -164.5t-134 -60.5v59zM0 889v180h176v-180h-176z" />
<glyph unicode="&#x3c;" horiz-adv-x="1243" d="M0 580l246 108l796 354v-159l-680 -303l680 -299v-162l-796 352z" />
<glyph unicode="=" horiz-adv-x="1009" d="M113 332v145h696v-145h-696zM113 623v145h696v-145h-696z" />
<glyph unicode="&#x3e;" horiz-adv-x="1243" d="M0 119v162l680 299l-680 303v159l797 -354l245 -108l-245 -109z" />
<glyph unicode="?" horiz-adv-x="925" d="M29 1202v51q0 23 8 65t43 83t104.5 70.5t192.5 29.5t192.5 -29.5t104.5 -70.5t43 -82t8 -66v-51v-264q-2 -35 -14.5 -75t-40.5 -81q-2 0 -2 -2h-2q-4 -8 -10.5 -15t-10.5 -13q-4 -4 -8 -13q-20 -27 -44 -55.5t-42 -54.5q-23 -31 -43 -60q-10 -10 -19 -24 q-8 -12 -14 -30.5t-10 -41.5v-137h-174v153h2q0 68 43 125q8 10 25.5 34t40 53.5t46 60.5t41.5 55q8 10 16.5 21.5t12.5 19.5q16 20 23.5 42t9.5 42v55v7v208v13q0 18 -6 39.5t-25.5 40t-54.5 32t-94 13.5q-55 0 -89 -13.5t-52.5 -34t-23.5 -42t-5 -39.5v-19h-172zM289 0 v182h176v-182h-176z" />
<glyph unicode="@" horiz-adv-x="1517" d="M205 -72v805q0 23 4 57.5t21.5 73.5t49 78t87 70.5t137.5 52t198 20.5h177q172 -4 251.5 -74.5t79.5 -172.5v-97v-450v-58q0 -39 -13 -81.5t-52 -79.5t-105.5 -61.5t-175.5 -24.5t-176 24.5t-106 61.5t-52.5 81t-13.5 80v95q0 78 39 141t115 90q37 12 84 28.5t91 32 t76.5 27.5t41.5 15q8 4 20 11t24.5 21.5t21.5 32.5t9 43v39q0 41 -32.5 80t-126.5 43h-181q-127 0 -198.5 -29t-106.5 -68.5t-43 -82.5t-8 -72v-694q0 -29 8 -75t43 -89t106.5 -74t198.5 -31h496v-143h-492q-174 0 -273 43t-149.5 101.5t-62.5 118t-12 91.5zM688 291 q0 -76 37 -115t139 -39t138 40t36 114v254q-4 -23 -19 -33t-32 -14q-31 -10 -66.5 -22.5t-66.5 -22.5q-37 -12 -70 -25q-25 -10 -47 -31q-18 -16 -33.5 -41.5t-15.5 -64.5z" />
<glyph unicode="A" d="M0 0v1253q0 23 8 65t43 83t104.5 70.5t192.5 29.5t192.5 -29.5t104.5 -70.5t43 -83t8 -65v-1253h-174v686q-4 -2 -44 -16.5t-87 -30.5l-123 -41q-25 -6 -47 -20q-18 -12 -33.5 -32t-15.5 -50v-2v-494h-172zM172 737q18 6 61 21.5t87.5 31t80 27.5t39.5 14q53 18 67.5 51 t14.5 60v281q0 18 -6 39.5t-25.5 40t-54.5 32t-94 13.5q-55 0 -89 -13.5t-52.5 -34t-23.5 -42t-5 -39.5v-482z" />
<glyph unicode="B" d="M0 0v662v161v662h172h291q59 0 103 -21.5t73 -55.5t43 -75t14 -80v-53v-248v-37q0 -29 -13 -80t-67 -94q53 -45 66.5 -96t13.5 -80v-45v-235v-54q0 -39 -14 -79.5t-43 -74.5t-73 -55.5t-103 -21.5h-463zM172 143h111h125q51 0 80.5 33t33.5 80v258v23q0 16 -6 37.5 t-24.5 41t-53.5 33t-90 13.5h-176v-519zM172 823h209q45 4 72.5 17.5t43 32t20.5 38t5 33.5v25v245v5q0 51 -30.5 86.5t-83.5 35.5h-125h-111v-518z" />
<glyph unicode="C" horiz-adv-x="841" d="M0 233v52v917v53q0 23 8 65t44 83t105.5 70.5t192.5 29.5t192.5 -29.5t104.5 -70.5t43 -83t8 -65v-53h-174v23q0 18 -6 39.5t-25.5 40t-54.5 32t-94 13.5q-55 0 -89 -13.5t-52.5 -34t-23.5 -42t-5 -39.5v-19v-917v-19q0 -18 5 -39.5t23.5 -41t52.5 -33t89 -13.5 q59 0 94 13.5t54.5 32t25.5 40t6 37.5v23h174v-52q0 -25 -8 -65.5t-43 -81.5t-104.5 -70.5t-192.5 -29.5t-192.5 29.5t-105.5 70.5t-44 83t-8 64z" />
<glyph unicode="D" d="M0 0v1485h174h291q59 0 102 -21.5t72 -55.5t43 -75t14 -80v-53v-915v-54q0 -39 -14 -79.5t-43 -74.5t-72 -55.5t-102 -21.5h-363h-4h-98zM174 143h111h123q53 0 84.5 36t31.5 85v21v915v19q0 51 -31.5 86.5t-84.5 35.5h-123h-111v-1198z" />
<glyph unicode="E" horiz-adv-x="833" d="M0 231v54v915v53q0 39 14.5 80t43 75t71.5 55.5t102 21.5h402v-144h-221h-123q-53 0 -85 -35.5t-32 -86.5v-19v-377h371v-161h-371v-377v-21q0 -49 32 -85t85 -36h123h221v-143h-402q-59 0 -102 21.5t-71.5 55.5t-43 75t-14.5 79z" />
<glyph unicode="F" horiz-adv-x="782" d="M0 0v1200v53q0 39 14.5 80t43 75t72.5 55.5t101 21.5h408v-144h-225h-125q-53 0 -85 -35.5t-32 -86.5v-19v-377h377v-161h-377v-662h-172z" />
<glyph unicode="G" horiz-adv-x="899" d="M0 233v52v917v53q0 23 8 65t43 83t104.5 70.5t192.5 29.5t192.5 -29.5t104.5 -70.5t43 -83t8 -65v-53h-174v23q0 18 -6 39.5t-25.5 40t-54.5 32t-94 13.5q-55 0 -89 -13.5t-52.5 -34t-23.5 -42t-5 -39.5v-19v-917v-19q0 -18 5 -39.5t23.5 -41t52.5 -33t89 -13.5 q59 0 94 13.5t54.5 32t25.5 40t6 37.5v23v104v178q0 35 -4 56.5t-21.5 30t-52 2t-96.5 -26.5v172q27 10 52.5 18t48.5 17q28 9 58 9q23 0 48 -5q57 -13 94 -52q18 -18 27.5 -36.5t14.5 -40t5 -49.5v-66v-127v-215v-21q0 -25 -8 -65.5t-43 -81.5t-104.5 -70.5t-192.5 -29.5 t-192.5 29.5t-104.5 70.5t-43 83t-8 64z" />
<glyph unicode="H" horiz-adv-x="937" d="M0 0v1485h174v-662h391v662h172v-1485h-172v662h-391v-662h-174z" />
<glyph unicode="I" horiz-adv-x="372" d="M0 0v1485h172v-1485h-172z" />
<glyph unicode="J" d="M0 231v52h172v-19q0 -18 5 -39.5t23.5 -41t52.5 -33t89 -13.5q59 0 94 13.5t54.5 32t25.5 40t6 37.5v23v1202h174v-1221v-33q0 -25 -8 -65.5t-43 -81.5t-104.5 -70.5t-192.5 -29.5t-192.5 29.5t-104.5 70.5t-43 83t-8 64z" />
<glyph unicode="K" horiz-adv-x="980" d="M0 0v1485h174v-748q18 6 46 15.5t57.5 20.5t60.5 22.5t55 19.5l49 16q51 18 66.5 51t15.5 60v543h172v-574q0 -66 -35.5 -125t-121.5 -94l241 -692h-184l-221 635q-23 -8 -41.5 -15.5t-32.5 -11.5l-31 -10q-25 -6 -47 -20q-18 -12 -33.5 -32t-15.5 -50v-2v-494h-174z" />
<glyph unicode="L" horiz-adv-x="806" d="M0 231v54v1200h172v-1200v-21q0 -49 32 -84t85 -35h123h194v-145h-375q-59 0 -102 21.5t-71.5 55.5t-43 75t-14.5 79z" />
<glyph unicode="M" horiz-adv-x="1421" d="M0 0v1200v53q0 23 8 65t44 83t105.5 70.5t192.5 29.5q98 0 159.5 -19.5t100.5 -47.5q41 29 102.5 48t159.5 19q123 0 193 -29.5t104.5 -70.5t43 -83t8.5 -65v-24v-1229h-172v1200v23q0 18 -6.5 39.5t-26 40t-54 32t-94.5 13.5q-57 0 -91 -13.5t-51 -34t-22.5 -42 t-5.5 -39.5v-19v-1200h-174v1200v23q0 18 -6 39.5t-25.5 40t-54.5 32t-94 13.5q-55 0 -89 -13.5t-52.5 -34t-23.5 -42t-5 -39.5v-19v-1200h-174z" />
<glyph unicode="N" d="M0 0v1200v53q0 23 8 65t43 83t104.5 70.5t192.5 29.5t192.5 -29.5t104.5 -70.5t43 -83t8 -65v-24v-1229h-174v1200v23q0 18 -6 39.5t-24.5 40t-54.5 32t-95 13.5q-55 0 -89 -13.5t-52.5 -34t-23.5 -42t-5 -39.5v-19v-1200h-172z" />
<glyph unicode="O" d="M0 233v52v917v53q0 23 8 65t43 83t104.5 70.5t192.5 29.5t192.5 -29.5t104.5 -70.5t43 -83t8 -65v-20v-981v-21q0 -25 -8 -65.5t-43 -81.5t-104.5 -70.5t-192.5 -29.5t-192.5 29.5t-104.5 70.5t-43 83t-8 64zM172 266q0 -18 5 -39.5t23.5 -41t52.5 -33t89 -13.5 q59 0 95 13.5t54.5 32t24.5 40t6 37.5v23h2v917h-2v23q0 18 -6 39.5t-24.5 40t-54.5 32t-95 13.5q-55 0 -89 -13.5t-52.5 -34t-23.5 -42t-5 -39.5v-19v-917v-19z" />
<glyph unicode="P" horiz-adv-x="899" d="M0 0v1200v53q0 23 8 65t44 83t105.5 70.5t192.5 29.5t192.5 -29.5t104.5 -70.5t43 -83t8 -65v-43v-286v-13q0 -74 -48 -139t-165 -100q-4 0 -12 -4q-31 -10 -66.5 -22.5t-66.5 -22.5q-37 -12 -70 -25q-25 -6 -47 -20q-18 -12 -33.5 -32t-15.5 -50v-2v-494h-174zM174 737 q18 6 46 16.5t58.5 20.5t61.5 21.5t55 19.5q12 4 24.5 8t22.5 8q53 18 67.5 51t14.5 60v19v239v23q0 18 -6 39.5t-25.5 40t-54.5 32t-94 13.5q-55 0 -89 -13.5t-52.5 -34t-23.5 -42t-5 -39.5v-19v-463z" />
<glyph unicode="Q" horiz-adv-x="884" d="M0 233v52v917v53q0 23 8 65t43 83t104.5 70.5t192.5 29.5t192.5 -29.5t104.5 -70.5t43 -83t8 -65v-30v-971v-21q0 -18 -4 -47.5t-21.5 -61.5t-50 -62.5t-90.5 -51.5q10 -29 33 -46t37 -21q10 -4 56 -20.5t106 -37.5v-172q-27 8 -83 26.5t-106 39.5q-57 23 -96 50.5 t-63.5 56t-38 55t-19.5 45.5h-8q-123 0 -192.5 29.5t-104.5 70.5t-43 83t-8 64zM174 266q0 -18 5 -39.5t22.5 -41t51.5 -33t91 -13.5q59 0 94 13.5t54.5 32t25.5 40t6 37.5v23v917v23q0 18 -6 39.5t-25.5 40t-54.5 32t-94 13.5q-57 0 -91 -13.5t-51.5 -34t-22.5 -42 t-5 -39.5v-19v-917v-19z" />
<glyph unicode="R" horiz-adv-x="903" d="M0 0v1210v43q0 23 8 65t43 83t104.5 70.5t192.5 29.5t192.5 -29.5t104.5 -70.5t43 -83t8 -65v-53v-239v-50q0 -66 -35.5 -125t-121.5 -94l241 -692h-184l-221 635q-23 -8 -41.5 -15.5t-32.5 -11.5l-31 -10q-25 -8 -47 -20q-18 -10 -32.5 -30t-16.5 -48v-500h-174z M174 737q18 6 46 16.5t58.5 20.5t61.5 21.5t55 19.5q12 4 24.5 8t22.5 8q51 18 66.5 51t15.5 58v270v13q0 18 -6 39.5t-25.5 40t-54.5 32t-94 13.5q-55 0 -89 -13.5t-52.5 -34t-23.5 -42t-5 -39.5v-19v-463z" />
<glyph unicode="S" d="M0 233v52h172v-19q0 -18 5 -39.5t23.5 -41t52.5 -33t89 -13.5q59 0 94 13.5t54.5 32t25.5 40t6 37.5v23v180v20q0 25 -14 59t-68 52q-12 4 -30.5 10t-32.5 12l-154 52q-8 4 -12 4q-117 35 -164 100.5t-47 138.5v13v37v249v43q0 23 8 65t43 83t104.5 70.5t192.5 29.5 t192.5 -29.5t104.5 -70.5t43 -83t8 -65v-53h-174v23q0 18 -6 39.5t-25.5 40t-54.5 32t-94 13.5q-55 0 -89 -13.5t-52.5 -34t-23.5 -42t-5 -39.5v-19v-239v-19q0 -27 15.5 -59.5t68.5 -50.5q8 -4 20.5 -8.5t24.5 -8.5q37 -12 85 -28.5t89 -32.5q41 -10 70 -25 q37 -12 64.5 -35.5t47.5 -54.5q39 -57 39 -127v-25v-204v-52q0 -25 -8 -65.5t-43 -81.5t-104.5 -70.5t-192.5 -29.5t-192.5 29.5t-104.5 70.5t-43 83t-8 64z" />
<glyph unicode="T" horiz-adv-x="798" d="M-41 1339v146h145h551v-146h-262v-1339h-172v1339h-262z" />
<glyph unicode="U" horiz-adv-x="899" d="M0 231v52v1202h174v-1202v-19q0 -18 5 -39.5t23.5 -41t52.5 -33t89 -13.5q59 0 94 13.5t54.5 32t25.5 40t6 37.5v23v1202h174v-1233h-2v-21q0 -25 -8 -65.5t-43 -81.5t-104.5 -70.5t-192.5 -29.5t-192.5 29.5t-104.5 70.5t-43 83t-8 64z" />
<glyph unicode="V" horiz-adv-x="899" d="M0 283v16v1186h172v-1141q2 -4 2 -10q0 -41 16.5 -68.5t43 -46t57.5 -29t57 -20.5q61 -20 96 -26.5t52.5 2t21.5 30t4 55.5v179h2v1075h172v-1233v-49v-68t-4 -50.5t-14 -39.5t-29 -37q-37 -37 -94 -49q-24 -5 -47 -5q-31 0 -59 9q-51 16 -112 38t-114 40q-14 4 -39.5 13 t-29.5 12q-25 8 -51.5 20t-50 35.5t-38 61.5t-14.5 100z" />
<glyph unicode="W" horiz-adv-x="1423" d="M0 283v16v1186h172v-1141v-10q0 -41 17.5 -68.5t43 -46t57.5 -29t58 -20.5q61 -20 96 -26.5t52.5 2t21.5 30t4 55.5v179v1075h174v-1139v-12q0 -41 17.5 -68.5t43 -46t56.5 -29t57 -20.5q61 -20 96 -26.5t53.5 2t23 30t4.5 55.5v179v1075h174v-1233v-49q0 -78 -5.5 -118 t-41.5 -77t-94 -49q-25 -5 -48 -5q-31 0 -59 9q-51 16 -112.5 38t-115.5 40q-10 4 -29.5 10t-31.5 10q-8 -27 -35 -53q-37 -37 -94 -49q-24 -5 -47 -5q-31 0 -59 9q-51 16 -112 38t-114 40q-14 4 -39.5 13t-29.5 12q-25 8 -52.5 20t-50 35.5t-37 61.5t-14.5 100z" />
<glyph unicode="X" horiz-adv-x="1024" d="M-82 1485h184l242 -690q29 10 61.5 21t61.5 22q12 4 35.5 13t40.5 13q53 18 67.5 51t14.5 60v510h174v-539q0 -53 -23.5 -102t-77.5 -88l265 -756h-183l-241 690q-31 -10 -62 -21.5t-55 -19.5q-14 -4 -33.5 -11t-30.5 -11q-53 -18 -68.5 -51t-15.5 -60v-516h-172v545 q0 35 8.5 67.5t28.5 61.5q10 14 21.5 26.5t23.5 22.5z" />
<glyph unicode="Y" d="M0 231v58h172v-25q0 -18 5 -39.5t23.5 -41t52.5 -33t89 -13.5q59 0 94 13.5t54.5 32t25.5 40t6 37.5v23v180v20q0 25 -14 58.5t-68 52.5q-12 4 -30.5 10t-32.5 12l-154 52q-8 4 -12 4q-117 35 -164 100.5t-47 138.5v50v524h172v-549q2 -27 18.5 -57.5t65.5 -47.5 q8 -4 20.5 -8t26.5 -8q35 -14 83 -30.5t89 -30.5q12 -4 24.5 -7.5t22.5 -7.5v746h174v-971v-2v-49v-193v-39q0 -25 -8 -65.5t-43 -81.5t-104.5 -70.5t-192.5 -29.5t-192.5 29.5t-104.5 70.5t-43 83t-8 64z" />
<glyph unicode="Z" horiz-adv-x="980" d="M1 104q-1 8 -1 15q0 25 12 55q4 8 31 61.5t68 134.5t92 182t104 204.5t103.5 203t90.5 177t63 125.5l24 47q4 10 0 20t-21 10h-547v146h635q27 0 53.5 -13.5t45.5 -35.5q18 -24 23 -56q1 -8 1 -15q0 -26 -12 -54q0 -2 -36 -73t-91 -179.5t-121.5 -239.5t-131 -256 t-117 -229.5t-79.5 -157.5q-4 -10 1.5 -20.5t19.5 -10.5h569v-145h-657q-27 0 -53.5 13.5t-45 36t-23.5 54.5z" />
<glyph unicode="[" horiz-adv-x="563" d="M0 -455v1993h362v-143h-219v-1706h219v-144h-362z" />
<glyph unicode="\" horiz-adv-x="903" d="M0 1503h152l550 -1517h-151q-33 92 -78 216t-96 263t-104.5 286.5t-103.5 286t-94 259t-75 206.5z" />
<glyph unicode="]" horiz-adv-x="604" d="M41 -311h219v1706h-219v143h362v-1993h-362v144z" />
<glyph unicode="_" horiz-adv-x="899" d="M0 0v145h147h551v-145h-698z" />
<glyph unicode="`" horiz-adv-x="722" d="M82 1487h229q4 -8 16.5 -26.5t28 -44t34 -56.5t36.5 -62q43 -72 96 -159q-27 2 -51 8q-23 4 -42.5 10t-29.5 14q-8 8 -53 51.5t-97 96.5t-100.5 101t-66.5 67z" />
<glyph unicode="a" d="M0 231v97q0 78 40 141t114 90q37 12 84 28.5t91 32t76.5 27.5t40.5 15q8 4 21.5 11t26 21.5t21.5 32.5t9 43v39q0 20 -8 41.5t-28.5 40t-54.5 30t-85 11.5q-102 0 -138 -42t-36 -102h-174v50q0 51 19.5 96t62.5 79t108.5 53t157.5 19q180 0 264 -70.5t84 -176.5v-99v-448 v-60q0 -37 -13 -81t-52 -80.5t-106.5 -61t-176.5 -24.5t-176.5 24.5t-106 61t-52 81t-13.5 80.5zM174 291q0 -78 37 -116t137 -38q102 0 139 40t37 114v252q-4 -20 -20.5 -30.5t-30.5 -14.5q-31 -10 -66.5 -23.5t-66.5 -23.5q-37 -12 -70 -25q-25 -10 -47 -29 q-18 -16 -33.5 -41.5t-15.5 -64.5z" />
<glyph unicode="b" d="M0 229v1256h174v-262v-37q0 -25 8 -43.5t20.5 -32.5t26 -21.5t21.5 -11.5q8 -2 41 -14t77 -27.5t91 -32t84 -28.5q74 -27 113.5 -90.5t39.5 -141.5v-49v-413v-50q0 -51 -19.5 -96t-62.5 -78.5t-108.5 -53t-157.5 -19.5q-180 0 -263 70.5t-85 174.5zM174 260v2 q0 -20 8 -42.5t27.5 -41t53.5 -30t85 -11.5q98 0 136 40t40 93v424h-2v13q0 39 -14 64.5t-33 41.5q-23 18 -49 29q-33 12 -70 24q-31 10 -65.5 23.5t-67.5 23.5q-14 4 -29.5 14.5t-19.5 33.5v-254v-13v-434z" />
<glyph unicode="c" d="M0 231v97v460v50q0 51 19.5 96t62.5 79t108.5 53t157.5 19q182 0 265 -70.5t83 -176.5v-50h-172v21q0 20 -8 41.5t-28.5 40t-54.5 30t-85 11.5q-102 0 -138 -42t-36 -102v-497q0 -78 37 -116t137 -38q102 0 139 40t37 114h172v-60q0 -37 -13 -81t-52 -80.5t-106.5 -61 t-176.5 -24.5t-176.5 24.5t-106 61t-52 81t-13.5 80.5z" />
<glyph unicode="d" d="M-2 229v50h2v415h-2v47q0 78 40 141.5t116 90.5q37 12 84 28.5t90 32t75.5 27.5t40.5 14q8 4 21.5 11.5t26 21.5t21.5 32.5t9 43.5v39v262h174v-1256q-2 -106 -86 -176.5t-262 -70.5q-92 0 -158.5 19t-109.5 53t-62.5 79t-19.5 96zM172 270q2 -27 11.5 -51t28.5 -42.5 t53 -30t83 -11.5q51 0 85 11.5t53.5 30t27.5 41t8 42.5v434v11v253q-4 -23 -19.5 -33t-31.5 -14q-31 -10 -66.5 -22t-66.5 -23q-37 -12 -70 -24q-25 -10 -47 -31q-18 -16 -33.5 -42t-15.5 -64v-11v-424z" />
<glyph unicode="e" horiz-adv-x="862" d="M2 231v48v92v413v2v52q0 25 8 65.5t43 81.5t104.5 70.5t192.5 29.5t192.5 -29.5t104.5 -70.5t43 -83t8 -64v-52v-2v-45q0 -35 -13 -78t-62 -92q-23 -25 -51.5 -37t-51.5 -18q-27 -8 -55 -8h-156q-53 0 -94 -39t-41 -96v-92q0 -49 19 -78q8 -14 18 -25q10 -10 31 -18 q16 -8 41.5 -14.5t66.5 -6.5q53 0 84 11.5t43 19.5q27 20 37 49t10 62h174v-50q0 -55 -23.5 -102t-72.5 -82q-35 -25 -96.5 -43t-155.5 -18q-70 0 -121 11t-89 28.5t-62.5 40t-40.5 45.5q-35 50 -35 115v7zM174 596q4 18 18.5 29.5t33 17.5t37 8t28.5 2h117q47 0 81.5 34 t34.5 81v16v2v19q0 18 -5 39.5t-23.5 41t-52 33t-89.5 13.5q-57 0 -93 -13.5t-55.5 -32t-25.5 -40t-6 -37.5v-23v-2v-16v-172z" />
<glyph unicode="f" horiz-adv-x="696" d="M0 924v145h131v145v39q0 23 8 65t43 83t104.5 70.5t192.5 29.5q33 0 59 1h11q22 0 45 -3l-39 -147q-25 -2 -41 -2t-39 -2q-57 0 -91 -13.5t-51.5 -33t-22.5 -41t-5 -39.5v-19v-133h174v-145h-174v-924h-174v924h-131z" />
<glyph unicode="g" horiz-adv-x="909" d="M25 -127v420v33v2v106v350v19v35q0 23 8 64.5t43 82.5t104.5 70.5t192.5 29.5t192.5 -29.5t104.5 -70.5t43 -83t8 -64v-35v-19v-45q0 -35 -12.5 -79t-61.5 -91q-25 -25 -52.5 -37t-49.5 -18q-27 -8 -56 -8h-157q-53 0 -94 -37t-41 -98v-43q0 -23 9 -38.5t22.5 -24.5 t26.5 -14t19 -9q8 -2 41 -13.5t76 -27t91 -31.5t85 -29q74 -27 114 -90t40 -141v-96q0 -37 -13.5 -81t-52.5 -81t-106.5 -61.5t-175.5 -24.5q-109 0 -176.5 24.5t-106.5 61.5t-52 81t-13 81v59zM197 125v-252q0 -74 36.5 -114t139.5 -40q100 0 137 38t37 116 q0 39 -14.5 64.5t-32.5 42.5q-23 18 -49 28q-33 12 -70 25q-31 10 -65.5 23.5t-67.5 23.5q-14 4 -30.5 14t-20.5 31zM197 594q4 18 18 29.5t33.5 17.5t38 8t26.5 2h119q47 0 81 34t34 83v16v19q0 18 -5 39.5t-22.5 42t-51.5 34t-91 13.5t-93 -13.5t-55.5 -32t-25.5 -40 t-6 -39.5v-4v-19v-16v-174z" />
<glyph unicode="h" d="M0 0v1487h172v-262v-39q0 -25 9 -43.5t21.5 -32.5t26 -21.5t21.5 -11.5q8 -2 41 -14t76 -27.5t91 -32t85 -28.5q74 -27 113.5 -90.5t39.5 -141.5v-65v-678h-174v678v29q0 39 -14 64.5t-33 41.5q-23 20 -49 31q-33 12 -70 24q-31 10 -65.5 22.5t-67.5 22.5 q-14 4 -30.5 14.5t-20.5 33.5v-254v-11v-696h-172z" />
<glyph unicode="i" horiz-adv-x="397" d="M25 0v1069h172v-1069h-172zM25 1276v207h172v-207h-172z" />
<glyph unicode="j" horiz-adv-x="372" d="M-176 -279q57 0 91 13.5t52.5 32t24.5 40t6 39.5v19v1206h174v-1214v-41q0 -25 -8 -66t-43 -82t-104.5 -70.5t-192.5 -29.5v153zM-2 1278v207h174v-207h-174z" />
<glyph unicode="k" horiz-adv-x="978" d="M0 0v1485h172v-924q18 6 46 16.5t58.5 21.5t61.5 21.5t55 18.5q12 4 24.5 8t22.5 8q53 18 67.5 51t14.5 60v303h174v-332q0 -55 -24.5 -105t-81.5 -89l188 -543h-184l-166 477q-29 -10 -57.5 -19t-51.5 -18q-27 -8 -51 -18q-25 -6 -47 -21q-18 -12 -33.5 -31.5 t-15.5 -50.5v-2v-317h-172z" />
<glyph unicode="l" horiz-adv-x="425" d="M53 0v1485h172v-1485h-172z" />
<glyph unicode="m" horiz-adv-x="1421" d="M0 0v801v37q0 25 8 65.5t43 81.5t104.5 70.5t192.5 29.5q98 0 160.5 -19t101.5 -48q39 29 101.5 48t160.5 19q123 0 193 -29.5t104.5 -70.5t43 -83t8.5 -64v-21v-817h-174v786v19q0 18 -5.5 39.5t-23 41t-51 33t-90.5 13.5t-93 -13.5t-55.5 -32t-26 -40t-6.5 -37.5v-23 v-786h-174v786v19q0 18 -5 39.5t-22.5 41t-51 33t-91.5 13.5q-57 0 -93 -13.5t-55.5 -32t-25.5 -40t-6 -37.5v-23v-786h-172z" />
<glyph unicode="n" horiz-adv-x="899" d="M0 0v801v37q0 25 8 65.5t44 81.5t105.5 70.5t192.5 29.5t192.5 -29.5t104.5 -70.5t43 -83t8 -64v-21v-817h-174v786v19q0 18 -5 39.5t-23.5 41t-52 33t-89.5 13.5q-57 0 -93 -13.5t-55.5 -32t-25.5 -40t-6 -37.5v-23v-786h-174z" />
<glyph unicode="o" d="M0 231v23v584q0 23 8 64.5t43 82.5t104.5 70.5t192.5 29.5t192.5 -29.5t104.5 -70.5t43 -82t8 -65v-574v-33q0 -25 -8 -65.5t-43 -81.5t-104.5 -70.5t-192.5 -29.5t-192.5 29.5t-104.5 70.5t-43 83t-8 64zM172 264q0 -16 5 -38.5t23.5 -42t52.5 -33t89 -13.5 q59 0 94 13.5t54.5 32t25.5 40t6 39.5v23v499v23q0 18 -6 39.5t-25.5 40t-54.5 32t-94 13.5q-55 0 -89 -13.5t-52.5 -33t-23.5 -42t-5 -38.5v-21v-499v-21z" />
<glyph unicode="p" d="M0 -416v1256q2 104 85 174.5t263 70.5q92 0 157.5 -19t108.5 -53t62.5 -79t19.5 -96v-50v-415v-47q0 -78 -39 -141.5t-114 -90.5q-37 -12 -84 -28.5t-91 -32t-77 -27.5t-41 -14q-8 -4 -20.5 -11.5t-24.5 -21.5t-21.5 -32.5t-9.5 -43.5v-37v-262h-174zM174 109 q4 23 19.5 33t31.5 14q33 10 68 23.5t65 23.5q37 12 70 24q27 10 49 29q18 16 32.5 42t14.5 64v11v426q-2 27 -11 51t-28.5 42.5t-53.5 29t-83 10.5q-51 0 -85 -11.5t-53.5 -30t-27.5 -40t-8 -43.5v-434v-11v-253z" />
<glyph unicode="q" d="M-2 326v47h2v415h-2v50q0 51 19.5 96t62.5 79t109.5 53t158.5 19q178 0 262 -70.5t86 -174.5v-1256h-174v262v37q0 25 -9 43.5t-21.5 32.5t-24.5 21.5t-21 11.5q-8 2 -40.5 14t-76.5 27.5t-91.5 32t-83.5 28.5q-76 27 -116 90.5t-40 141.5zM172 362q0 -39 15.5 -64.5 t33.5 -41.5q23 -18 47 -29q33 -12 70 -24q31 -10 66.5 -23.5t66.5 -23.5q16 -4 31.5 -14.5t19.5 -32.5v253v11v434q0 23 -8 44t-27.5 39.5t-53.5 30t-85 11.5q-49 0 -83 -10.5t-53 -29t-28.5 -43t-11.5 -50.5v-426v-11z" />
<glyph unicode="r" horiz-adv-x="585" d="M0 0v788v48q0 23 8 64.5t43 82.5t104.5 70.5t192.5 29.5q34 0 60 1h11q21 0 44 -3l-39 -149q-25 0 -41 -1t-39 -1q-55 0 -89 -14.5t-52.5 -34t-23.5 -41t-5 -39.5v-19v-782h-174z" />
<glyph unicode="s" d="M0 231v60h172q0 -74 37 -114t139 -40q100 0 137 38t37 116q0 39 -14 64.5t-33 41.5q-23 18 -49 29q-61 23 -115 41q-47 16 -91 31.5t-64 21.5q-20 8 -47 24.5t-51.5 43t-41 64.5t-16.5 87v99q0 106 84 176.5t264 70.5q92 0 157.5 -19t108.5 -53t62.5 -79t19.5 -96v-50 h-174q0 59 -35.5 101.5t-138.5 42.5q-51 0 -85 -11.5t-54.5 -30t-28.5 -40t-8 -41.5v-39q0 -25 9 -43t21.5 -32.5t26 -21.5t21.5 -11q8 -2 41 -14.5t77 -28t91 -32t84 -28.5q74 -27 113.5 -90t39.5 -141v-97q0 -37 -13 -81t-52 -80.5t-106.5 -61t-176.5 -24.5t-176.5 24.5 t-106 61t-52 81t-13.5 80.5z" />
<glyph unicode="t" horiz-adv-x="624" d="M0 940v145h131v273h174v-273h176v-145h-176v-639v-18q0 -18 5 -40t23.5 -42.5t52.5 -33.5t89 -13h6v-154q-123 0 -192.5 29.5t-105.5 70.5t-44 83t-8 65v37v655h-131z" />
<glyph unicode="u" d="M0 233v23v815h172v-784h2v-21q0 -16 5 -38.5t22.5 -42t51.5 -33t91 -13.5q59 0 94 13.5t53.5 32t24.5 40t6 39.5v23h2v784h172v-801v-37q0 -25 -8 -65.5t-43 -81.5t-104.5 -70.5t-192.5 -29.5t-192.5 29.5t-104.5 70.5t-43 83t-8 64z" />
<glyph unicode="v" horiz-adv-x="899" d="M0 299v764h172v-694v-13q0 -41 17.5 -68.5t43 -45t57.5 -27.5t58 -20q61 -20 96 -26.5t52.5 1.5t21.5 29.5t4 56.5v154v653h174v-631v-207v-67q0 -27 -5 -48.5t-14 -40t-28 -36.5q-37 -37 -94 -51q-25 -6 -49 -5q-30 0 -57 9q-51 18 -112 39.5t-114 37.5 q-14 6 -39.5 14.5t-29.5 10.5q-25 8 -51.5 20.5t-49 35t-38 60.5t-15.5 95z" />
<glyph unicode="w" horiz-adv-x="1423" d="M0 291v774h174v-696v-11q0 -41 17.5 -68.5t43 -45t57.5 -27.5t58 -20q61 -20 96 -26.5t52.5 1.5t21.5 29.5t4 56.5v49v2v6v97v653h174v-631v-65v-11q0 -41 17.5 -68.5t43 -45t56.5 -27.5t57 -20q61 -20 96.5 -26.5t53.5 1.5t22.5 29.5t4.5 56.5v154v653h172v-631v-207 v-67q0 -27 -4.5 -48.5t-13.5 -40t-27 -36.5q-38 -37 -96 -51q-25 -6 -49 -5q-29 0 -56 9q-51 18 -112.5 39.5t-114.5 38.5q-10 4 -30 11t-32 11q-10 -31 -35 -53q-37 -37 -94 -51q-25 -6 -49 -5q-30 0 -57 9q-51 18 -113 39.5t-113 38.5q-16 6 -40.5 14t-28.5 10 q-25 8 -51.5 20.5t-48 34t-37 56.5t-17.5 90h-2z" />
<glyph unicode="x" horiz-adv-x="913" d="M-72 1069h176l166 -477q35 12 71 24.5t65 22.5l24 8t23 8q53 18 67.5 51t14.5 60v303h174v-332q0 -59 -27 -106v-2q-25 -55 -78 -90l187 -539h-175l-165 477q-35 -12 -71 -24.5t-65 -22.5q-14 -4 -26.5 -8t-20.5 -8q-53 -18 -68.5 -51t-15.5 -60v-303h-172v332 q0 29 5.5 55.5t19.5 50.5v2q31 59 80 92z" />
<glyph unicode="y" horiz-adv-x="899" d="M0 -135h174v-19q0 -18 5 -39.5t23.5 -42t52.5 -34t89 -13.5q59 0 94 13.5t54.5 32t25.5 40t6 39.5v2v37q0 25 -9 43.5t-21.5 32.5t-25.5 21.5t-22 11.5q-8 2 -40.5 14t-75.5 27.5t-91.5 32t-84.5 28.5q-74 27 -114 90.5t-40 141.5v47v696h174v-696v-11q0 -39 15.5 -64.5 t33.5 -41.5q23 -18 47 -29q33 -12 70 -24q31 -10 66.5 -23.5t66.5 -23.5q16 -4 31.5 -14.5t19.5 -33.5v254v11v696h174v-1227h-2v-28q0 -25 -8 -66t-43 -82t-104.5 -70.5t-192.5 -29.5t-192.5 29.5t-104.5 70.5t-43 83t-8 65v53z" />
<glyph unicode="z" horiz-adv-x="956" d="M0 926v145h598q27 0 53.5 -13.5t44.5 -35.5q19 -24 24 -56q1 -8 1 -15q0 -26 -12 -54l-21 -31q-22 -32 -57 -83.5t-79 -117t-89 -133.5l-242 -360q-4 -10 -2 -18.5t19 -8.5h518v-145h-596q-27 0 -54.5 13.5t-46 36t-23.5 54.5q-1 8 -1 16q0 26 12 54q2 2 38 56.5t90 135 t116.5 174t117 174.5t90.5 134l36 53q4 8 2 16.5t-17 8.5h-520z" />
<glyph unicode="{" horiz-adv-x="731" d="M0 475v129q14 4 28.5 8t28.5 13q37 18 64 57q27 35 45 88q16 53 16 113v389q0 70 21 117q18 49 51 81q29 33 68 52q43 16 75 16h133v-143h-90q-43 0 -65 -21q-10 -10 -20.5 -23.5t-16.5 -29.5q-12 -27 -19 -66q-2 -18 -3 -36.5t-1 -36.5v-344q0 -94 -26.5 -151.5 t-61.5 -90.5q-39 -37 -88 -53v-6q49 -14 88 -52q35 -31 61.5 -88t26.5 -153v-346q0 -16 1 -35t3 -37q6 -33 19 -66q6 -16 16.5 -27.5t20.5 -21.5q27 -23 65 -22h90v-144h-133q-33 0 -75 17q-39 18 -68 51q-16 16 -28.5 36.5t-22.5 47.5q-20 47 -21 115v387q0 57 -16 110 q-10 25 -20.5 47.5t-24.5 38.5q-27 37 -64 60q-14 8 -28.5 12t-28.5 8z" />
<glyph unicode="|" horiz-adv-x="432" d="M92 -14v1517h139v-1517h-139z" />
<glyph unicode="}" horiz-adv-x="772" d="M41 -311h88q39 0 66 22q25 18 36 49q16 31 19 66q6 37 6 72v346q0 96 26.5 153.5t61.5 87.5q39 37 88 52v6q-49 16 -88 53q-35 33 -61.5 90t-26.5 152v344q0 37 -6 73q-4 39 -19 66q-10 31 -36 53q-23 20 -66 21h-88v143h131q37 0 76 -16q39 -18 67 -52 q16 -16 29.5 -36.5t24.5 -44.5q10 -25 15 -54.5t5 -62.5v-389q0 -31 3 -59.5t14 -53.5q14 -51 43 -88q26 -37 65 -57q25 -14 57 -21v-129q-33 -6 -57 -20q-18 -10 -34.5 -24.5t-30.5 -35.5q-27 -33 -43 -86q-10 -25 -13.5 -53.5t-3.5 -56.5v-387q0 -33 -5 -62t-15 -53 q-20 -53 -54 -84q-29 -33 -67 -51q-39 -16 -76 -17h-131v144z" />
<glyph unicode="~" horiz-adv-x="913" d="M0 483q68 102 188 119q10 2 21 2h20q35 0 67 -5t60 -11l58 -13q25 -6 46 -10t38 -4q29 0 51 14.5t47 49.5l117 -82q-53 -74 -108.5 -99.5t-108.5 -25.5q-33 0 -63 6t-54 12q-10 4 -18.5 5t-16.5 3l-14 2q-29 6 -55.5 10.5t-49.5 4.5q-35 0 -60.5 -12.5t-45.5 -42.5z" />
<glyph unicode="&#xa1;" horiz-adv-x="376" d="M-2 870v183h178v-183h-178zM0 -436v1110h174v-1110h-174z" />
<glyph unicode="&#xa2;" d="M0 240v94v461v49q0 98 73.5 168.5t239.5 79.5v102h72v-102q162 -10 236.5 -79t74.5 -169v-49h-174v20q0 37 -28.5 75t-108.5 46v-791q80 8 108.5 46t28.5 106h174v-57q0 -37 -12 -79t-47 -78t-95.5 -61.5t-156.5 -29.5v-103h-72v103q-96 4 -157.5 29.5t-96 61.5t-47 78 t-12.5 79zM172 297h2q0 -70 29.5 -107.5t109.5 -44.5v791q-82 -8 -111.5 -48t-29.5 -93v-498z" />
<glyph unicode="&#xa3;" horiz-adv-x="972" d="M0 0v143q18 6 56 13.5t77 31t71 72.5t40 143v3v12v4v381h-244v151h244v252v39q0 23 8 65t43 83t104.5 70.5t192.5 29.5q33 0 59.5 1t55.5 -3l-39 -150q-25 0 -41.5 -1t-38.5 -1q-57 0 -91 -14t-51.5 -33.5t-22.5 -41t-5 -38.5v-20v-238h248v-151h-248v-385v-47 q-4 -84 -38 -140.5t-85 -87.5h477v-143h-772z" />
<glyph unicode="&#xa5;" horiz-adv-x="1030" d="M0 1194v49v242h174v-268q0 -27 16.5 -57t65.5 -48q8 -4 21.5 -8t25.5 -8q23 -8 52.5 -18.5t58.5 -20.5q31 10 60.5 20t51.5 19q12 4 24.5 8t22.5 8q49 18 64.5 49t17.5 56v268h174v-242v-49q0 -76 -48 -141.5t-165 -98.5q-8 -4 -12 -4q-23 -10 -49.5 -18t-52.5 -19v-133 h260v-153h-260v-148h260v-151h-260v-328h-172v328h-267l3 151h264v148h-267l3 153h264v133q-27 10 -53.5 18.5t-51.5 18.5q-8 0 -12 4q-117 33 -165 98.5t-48 141.5z" />
<glyph unicode="&#xa8;" horiz-adv-x="804" d="M82 1176v204h172v-204h-172zM432 1176v204h172v-204h-172z" />
<glyph unicode="&#xa9;" horiz-adv-x="1855" d="M102 354v394v16v393q0 33 12.5 92.5t61.5 117.5t149.5 101t274.5 43h158h41h69h129q174 0 273.5 -43t149.5 -101t62.5 -117.5t12.5 -92.5v-401v-402q0 -33 -12.5 -92t-62.5 -117.5t-149.5 -101.5t-273.5 -43h-108h-88h-105h-96q-174 0 -274.5 43t-149.5 101.5t-61.5 118 t-12.5 91.5zM240 412q0 -29 8 -75t43 -89t106.5 -74t198.5 -31h199h206q127 0 199 31t106.5 74t43 89t8.5 75v20v647v21q0 29 -8.5 75t-43 89t-106.5 73.5t-199 30.5h-198h-207q-127 0 -198.5 -30.5t-106.5 -73.5t-43 -89.5t-8 -74.5v-21v-305v-37v-305v-20zM451 598v41v215 v51q0 25 8 66t43 82t104.5 70.5t192.5 29.5t192.5 -29.5t104 -70.5t43 -83t8.5 -65v-51h-174v18q0 18 -5 40t-22.5 41.5t-51.5 32.5t-91 13t-92 -12t-54.5 -30.5t-25.5 -40t-6 -39.5v-23h-2v-205h2v-22q0 -16 6 -38t25.5 -40.5t54 -31.5t92.5 -13q57 0 91 13t51.5 32.5 t22.5 41t5 40.5v18h174v-51q0 -23 -8.5 -64.5t-43 -82.5t-104 -71t-192.5 -30t-192.5 30t-104.5 71t-43 81.5t-8 65.5z" />
<glyph unicode="&#xab;" horiz-adv-x="1130" d="M0 580l311 352h205l-313 -352l313 -353h-205zM412 580l313 352h205l-314 -352l314 -353h-205z" />
<glyph unicode="&#xac;" horiz-adv-x="950" d="M53 438v146h697v-422h-146v276h-551z" />
<glyph unicode="&#xad;" d="M0 438v146h696v-146h-696z" />
<glyph unicode="&#xae;" horiz-adv-x="1796" d="M102 354v394v16v393q0 33 12.5 92.5t62.5 117.5t149.5 101t273.5 43h158h41h69h129q117 0 199 -20.5t137.5 -52t88 -71.5t49 -79t20.5 -73.5t4 -57.5v-401v-402q0 -23 -4 -57.5t-20.5 -73.5t-49 -79t-88 -71.5t-137.5 -52t-199 -20.5h-108h-88h-105h-96q-174 0 -273.5 43 t-149.5 101.5t-62.5 118t-12.5 91.5zM240 412q0 -29 8 -75t43 -89t106.5 -74t198.5 -31h199h206q127 0 199 31t106.5 74t43 89t8.5 75v20v322v4v321v21q0 29 -8.5 75t-43 89t-106.5 73.5t-199 30.5h-198h-207q-127 0 -198.5 -30.5t-106.5 -73.5t-43 -89.5t-8 -74.5v-21v-307 v-33v-307v-20zM471 330v596v45q0 23 8 61.5t41 76.5t98.5 66.5t180.5 28.5t180 -27.5t98 -66.5t41 -78t8 -61v-49v-19q0 -14 -2 -22v-7q-6 -51 -36.5 -95t-92.5 -77l131 -372h-172l-112 317q-23 -8 -44.5 -15t-37.5 -14q-20 -8 -35 -12q-25 -6 -45 -18q-16 -10 -30.5 -28.5 t-14.5 -47.5v-2v-2v-178h-164zM635 737q35 12 97.5 35t109.5 39q12 4 23.5 8t21.5 8q41 14 56 40t20 48v43q-2 16 -10.5 34t-28 33t-50 25.5t-79.5 10.5q-53 0 -85 -13.5t-48.5 -32t-21.5 -39t-5 -36.5v-18v-185z" />
<glyph unicode="&#xb0;" horiz-adv-x="794" d="M0 1188q0 61 23.5 115.5t63.5 94.5t94.5 63.5t115.5 23.5t115.5 -23.5t94.5 -63.5t63.5 -94.5t23.5 -115.5t-23.5 -115.5t-63.5 -94.5t-94.5 -63.5t-115.5 -23.5t-115.5 23.5t-94.5 63.5t-63.5 94t-23.5 116zM143 1188q0 -66 44 -110t110 -44q63 0 108.5 44t45.5 110 q0 63 -45.5 108t-108.5 45q-66 0 -110 -45t-44 -108z" />
<glyph unicode="&#xb1;" horiz-adv-x="1015" d="M119 0v145h274v287h-274v146h276v276h146v-276h274v-146h-274v-287h274v-145h-696z" />
<glyph unicode="&#xb4;" horiz-adv-x="815" d="M174 1139q53 88 96 159q18 31 37 62t34 56.5t27.5 44t16.5 26.5h229q-18 -18 -66 -66.5t-100.5 -101.5t-96.5 -96t-54 -52q-10 -8 -28.5 -14t-41.5 -10q-25 -6 -53 -8z" />
<glyph unicode="&#xb5;" horiz-adv-x="899" d="M0 -164v461v774h174v-784v-19q0 -18 5 -39.5t23.5 -41t52.5 -33t89 -13.5q59 0 94 13.5t54.5 32t25.5 40t6 37.5v23v784h174v-799v-36q0 -25 -8 -66t-43 -82t-104.5 -70.5t-192.5 -29.5q-109 0 -176 24v-176h-174z" />
<glyph unicode="&#xb6;" horiz-adv-x="1226" d="M0 1051q0 86 33 161.5t89 132t132 89t162 32.5h18h53h525h14v-1902h-174v1757h-262v-1757h-174v1071q-86 0 -162 32.5t-132 89t-89 132.5t-33 162z" />
<glyph unicode="&#xb7;" horiz-adv-x="376" d="M0 0v180h176v-180h-176z" />
<glyph unicode="&#xb8;" horiz-adv-x="350" d="M-29 1102v57q35 4 53.5 18.5t27.5 37t10 51t-3 59.5h-88v180h179v-180q0 -104 -44.5 -163.5t-134.5 -59.5z" />
<glyph unicode="&#xbb;" horiz-adv-x="1130" d="M0 227l313 353l-313 352h205l133 -152l180 -200l-180 -201l-133 -152h-205zM414 227l313 353l-313 352h204l134 -152l178 -200l-178 -201l-134 -152h-204z" />
<glyph unicode="&#xbf;" d="M0 129h2q0 35 13.5 75t41.5 81l162 213q10 10 19 24q16 27 22 72v137h174v-153q-4 -68 -45 -125q-8 -10 -36.5 -48t-60.5 -80t-57.5 -77t-27.5 -39q-16 -20 -23.5 -42t-9.5 -42v-283q0 -18 6 -39.5t25.5 -40t55.5 -32t93 -13.5q55 0 89 13.5t52.5 34t23.5 42t5 39.5v150 h172v-209q-2 -29 -16 -66.5t-51 -72.5t-104.5 -59.5t-176.5 -24.5q-123 0 -192.5 29.5t-104.5 70.5t-43 83t-8 67v315zM260 885v180h176v-180h-176z" />
<glyph unicode="&#xc0;" d="M0 0h172v494v2q0 31 15.5 50t33.5 32q23 14 47 20q33 12 70 25q31 10 66.5 22t66.5 23q8 4 12 4q25 6 39 14v-686h174v1210v43q0 23 -8 65t-43 83t-104.5 70.5t-192.5 29.5t-192.5 -29.5t-104.5 -70.5t-43 -83t-8 -65v-53v-1200zM129 1872h229q4 -8 16.5 -26.5t28 -44 t34 -56.5t36.5 -62q43 -72 96 -159q-29 2 -53 8q-23 4 -41 10t-29 14q-8 8 -53 51.5t-97 96.5t-100.5 101t-66.5 67zM172 737v463v19q0 18 5 39.5t23.5 42t52.5 34t89 13.5q59 0 94 -13.5t54.5 -32t25.5 -40t6 -39.5v-23v-239v-19q0 -27 -14 -59.5t-68 -51.5q-10 -4 -22 -8 t-25 -8q-25 -8 -55.5 -19.5t-61 -21.5t-58.5 -20.5t-46 -16.5z" />
<glyph unicode="&#xc1;" horiz-adv-x="899" d="M0 0v1200v53q0 23 8 65t43 83t104.5 70.5t192.5 29.5t192.5 -29.5t104.5 -70.5t43 -83t8 -65v-43h2v-1210h-174v686q-14 -8 -39 -14q-4 0 -12 -4q-31 -10 -66.5 -22.5t-66.5 -22.5q-37 -12 -70 -25q-25 -6 -47 -20q-18 -12 -33.5 -32t-15.5 -50v-2v-494h-174zM131 1524 q53 88 96 159q18 31 37 62t34 56.5t27.5 44t16.5 26.5h227q-18 -18 -66 -66.5t-100.5 -101.5t-96.5 -96t-52 -52q-10 -8 -28.5 -14t-41.5 -10q-25 -6 -53 -8zM174 737q18 6 46 16.5t58.5 20.5t61.5 21.5t55 19.5q12 4 24.5 8t22.5 8q51 18 66.5 51t15.5 60v19v239v23 q0 18 -6 39.5t-25.5 40t-54.5 32t-94 13.5q-55 0 -89 -13.5t-52.5 -34t-23.5 -42t-5 -39.5v-19v-463z" />
<glyph unicode="&#xc2;" d="M0 0v1200v53q0 23 8 65t43 83t104.5 70.5t192.5 29.5t192.5 -29.5t104.5 -70.5t43 -83t8 -65v-43v-1210h-172v686q-10 -4 -19 -7t-20 -7q-4 0 -12 -4q-31 -10 -66.5 -22.5t-66.5 -22.5q-37 -12 -70 -25q-25 -6 -47 -20q-18 -12 -33.5 -32t-15.5 -50v-2v-494h-174z M84 1526l211 346h55h53l211 -346q-27 2 -51 8q-23 4 -42 9t-29 13q-4 4 -18.5 23.5t-34 48.5t-43 62.5t-46.5 66.5q-23 -31 -46 -64.5t-42.5 -63.5t-35 -49t-19.5 -24q-10 -8 -28.5 -13t-41.5 -9q-25 -6 -53 -8zM174 737q18 6 45 16.5t57.5 20.5t61.5 21.5t55 19.5 q12 4 25.5 8t21.5 8q53 18 68.5 51t15.5 60v19v239v23q0 18 -6 39.5t-25.5 40t-54.5 32t-94 13.5q-57 0 -91 -13.5t-51.5 -34t-22.5 -42t-5 -39.5v-19v-463z" />
<glyph unicode="&#xc3;" horiz-adv-x="899" d="M0 0v1202v51q0 23 8 65t43 83t104.5 70.5t192.5 29.5t192.5 -29.5t105.5 -70.5t44 -82t8 -66v-41v-1212h-174v686q-10 -4 -19 -6t-20 -6q-4 0 -12 -4q-31 -10 -66.5 -22.5t-66.5 -22.5q-37 -12 -70 -25q-25 -6 -47 -20q-18 -12 -33.5 -32t-15.5 -50v-2v-496h-174z M16 1567q6 117 52 174q47 59 135 59q74 0 133 -39l61 -37q57 -35 86 -34q35 0 54 28q20 29 22 82h123q-6 -119 -51 -176t-133 -57q-76 0 -136 39l-59 36q-53 33 -86 33q-35 1 -53 -26q-10 -14 -15.5 -34t-9.5 -48h-123zM174 739q18 6 46 15.5t58.5 20.5t61.5 22.5t55 19.5 q12 4 24.5 8t22.5 9q53 18 67.5 51t14.5 59v19v239v23q0 16 -6 37.5t-25.5 41t-54.5 33t-94 13.5q-55 0 -89 -13.5t-52.5 -34t-23.5 -42t-5 -39.5v-19v-463z" />
<glyph unicode="&#xc4;" d="M0 0v1200v53q0 23 8 65t43 83t104.5 70.5t192.5 29.5t192.5 -29.5t104.5 -70.5t43 -83t8 -65v-43v-1210h-172v686q-10 -4 -19 -7t-20 -7q-4 0 -12 -4q-31 -10 -66.5 -22.5t-66.5 -22.5q-37 -12 -70 -25q-25 -6 -47 -20q-18 -12 -33.5 -32t-15.5 -50v-2v-494h-174z M86 1561v206h174v-206h-174zM174 737q18 6 45 16.5t57.5 20.5t61.5 21.5t55 19.5q12 4 25.5 8t21.5 8q53 18 68.5 51t15.5 60v19v239v23q0 18 -6 39.5t-25.5 40t-54.5 32t-94 13.5q-57 0 -91 -13.5t-51.5 -34t-22.5 -42t-5 -39.5v-19v-463zM438 1561v206h172v-206h-172z" />
<glyph unicode="&#xc6;" horiz-adv-x="1355" d="M0 0v1200v51q0 23 8 65t43 83t104.5 71.5t192.5 30.5q96 0 157.5 -19.5t100.5 -47.5q29 23 66 37t84 14h399v-144h-219h-123q-53 0 -85 -35.5t-32 -84.5v-21v-239v-50v-6v-82h371v-161h-371v-377v-19q0 -51 32 -87t85 -36h123h219v-143h-399q-59 0 -103.5 21.5t-73 55.5 t-43 76t-14.5 80v52v401q-14 -8 -39 -14l-12 -4q-31 -10 -66.5 -22.5t-66.5 -22.5q-37 -12 -70 -25q-25 -6 -47 -20q-18 -12 -33.5 -32t-15.5 -50v-2v-494h-172zM172 737q18 6 46 15.5t58.5 20.5t61.5 22.5t55 19.5q12 4 24.5 8t22.5 8q51 18 66.5 49t15.5 58v262v23 q0 18 -6 39.5t-25.5 40t-54.5 32t-94 13.5q-55 0 -89 -13.5t-52.5 -34t-23.5 -42t-5 -39.5v-19v-463z" />
<glyph unicode="&#xc7;" d="M0 233v52v917v51q0 23 8 65t43 83t104.5 71.5t192.5 30.5t192.5 -29.5t104.5 -70.5t43 -83t8 -67v-51h-172v23q0 18 -6 39.5t-25.5 40t-54.5 32t-94 13.5q-55 0 -89 -13.5t-52.5 -34t-23.5 -42t-5 -39.5v-19v-917v-19q0 -18 5 -39.5t23.5 -41t52.5 -33t89 -13.5 q59 0 94 13.5t54.5 32t25.5 40t6 37.5v23h172v-52q0 -23 -7 -62.5t-39 -79.5t-95 -70.5t-174 -34.5h-2l-66 -84l4 -4q20 14 68 14q68 0 119 -37q53 -37 53 -113q0 -51 -22 -86q-27 -37 -62 -57q-37 -23 -82 -31q-41 -8 -88 -8q-25 0 -48.5 3t-45.5 7q-23 6 -47.5 13.5 t-46.5 15.5l37 90q23 -8 59 -18q31 -8 65 -8h21q12 0 22 2q23 4 41 12t31 18q12 12 12 31q0 31 -26 45q-27 18 -70 19q-12 0 -22.5 -1.5t-20.5 -3.5q-20 -4 -41 -12l-35 57l107 138q-102 6 -161.5 37.5t-89.5 70.5t-37 78t-7 59z" />
<glyph unicode="&#xc8;" horiz-adv-x="833" d="M0 233q0 -39 14.5 -80.5t43 -75.5t72.5 -55.5t101 -21.5h402v145h-219h-125q-53 0 -85 36t-32 85v19v377h371v161h-371v379v19q0 49 32 84.5t85 35.5h125h219v146h-402q-57 0 -101 -21.5t-72.5 -55.5t-43 -76t-14.5 -81v-39v-12v-917v-11v-41zM131 1872l229 2 q4 -8 16.5 -26.5t28 -45t34 -57.5t36.5 -62q43 -72 96 -157q-29 2 -53 8q-23 4 -41 10t-28 15q-6 6 -29 27.5t-54.5 52t-67.5 66.5t-68.5 69.5t-59.5 59.5t-39 38z" />
<glyph unicode="&#xc9;" horiz-adv-x="833" d="M0 233v41v11v917v12v39q0 39 14.5 81t43 76t72.5 55.5t103 21.5h400v-146h-219h-125q-53 0 -84 -35.5t-31 -84.5v-19v-379h371v-161h-371v-377v-19q0 -49 31 -85t84 -36h125h219v-145h-400q-59 0 -103 21.5t-72.5 55.5t-43 76t-14.5 80zM131 1526q53 86 96 157 q18 31 37 62t34 57.5t27.5 45t16.5 26.5l229 -2q-12 -12 -38.5 -38t-59.5 -59.5t-68.5 -69.5t-67.5 -66.5t-54.5 -52t-28.5 -27.5q-10 -8 -28.5 -14.5t-41.5 -10.5q-25 -6 -53 -8z" />
<glyph unicode="&#xca;" horiz-adv-x="833" d="M0 233v41v11v917v12v39q0 39 14.5 81t43 76t72.5 55.5t101 21.5h402v-146h-219h-125q-53 0 -85 -35.5t-32 -84.5v-19v-379h371v-161h-371v-377v-19q0 -49 32 -85t85 -36h125h219v-145h-402q-57 0 -101 21.5t-72.5 55.5t-43 76t-14.5 80zM84 1526l211 348h55h53l211 -348 q-27 2 -51 8q-23 4 -42 10t-29 15q-4 4 -18.5 23.5t-34 48t-43 62t-46.5 64.5q-23 -31 -46 -64.5t-42.5 -62t-35 -48t-19.5 -23.5q-10 -8 -28.5 -14.5t-41.5 -10.5q-25 -6 -53 -8z" />
<glyph unicode="&#xcb;" horiz-adv-x="833" d="M0 231v41v13v915v12v41q0 39 14.5 80t43 75t72.5 55.5t103 21.5h400v-144h-219h-125q-53 0 -84 -35.5t-31 -86.5v-19v-377h371v-161h-371v-377v-21q0 -49 31 -85t84 -36h125h219v-143h-400q-59 0 -103 21.5t-72.5 55.5t-43 75t-14.5 79zM86 1561v206h174v-206h-174z M438 1561v206h172v-206h-172z" />
<glyph unicode="&#xcc;" horiz-adv-x="518" d="M-4 1874h229q4 -8 16.5 -26.5t28 -44t34 -56.5t36.5 -61q43 -72 96 -158q-27 2 -51 8q-23 4 -42 9t-30 14l-28.5 28.5t-54 53t-67.5 66.5t-69 68.5t-59.5 59.5t-38.5 39zM129 2h172v1487h-172v-1487z" />
<glyph unicode="&#xcd;" horiz-adv-x="522" d="M0 1526q53 86 96 157q18 31 37 62t34 56.5t27.5 44t16.5 26.5h229q-12 -12 -38.5 -39t-59.5 -59.5t-68.5 -68.5t-67.5 -66.5t-54.5 -53t-28.5 -29.5q-10 -8 -28.5 -13t-41.5 -9q-25 -6 -53 -8zM131 0v1487h174v-1487h-174z" />
<glyph unicode="&#xce;" horiz-adv-x="610" d="M0 1526l211 346v2l53 -2l55 2v-2l209 -346q-27 2 -51 8q-23 4 -42 10t-29 15q-4 4 -17.5 22t-33 47t-43 62.5t-48.5 66.5q-20 -31 -43.5 -64.5t-43 -62t-35 -48t-19.5 -23.5q-10 -8 -28.5 -14.5t-41.5 -10.5q-25 -6 -53 -8zM178 0v1487h172v-1487h-172z" />
<glyph unicode="&#xcf;" horiz-adv-x="606" d="M0 1563v206h174v-206h-174zM176 0v1487h174v-1487h-174zM352 1563v206h172v-206h-172z" />
<glyph unicode="&#xd1;" d="M0 0v1202v51q0 23 8 65t43 83t104.5 71.5t192.5 30.5t192.5 -29.5t104.5 -70.5t43 -83t8 -67v-22v-1231h-172v1202v23q0 18 -6 39.5t-25.5 40t-54.5 32t-94 13.5q-57 0 -91 -13.5t-51.5 -34t-22.5 -42t-5 -39.5v-19h-2v-1202h-172zM16 1567q2 113 52 174q47 59 133 59 q76 0 135 -39l59 -37q57 -35 86 -34q35 0 54 28q23 29 24 82h123q-6 -117 -53 -176q-43 -57 -131 -57q-76 0 -136 39l-61 36q-53 33 -86 33q-33 1 -53 -26q-20 -29 -23 -82h-123z" />
<glyph unicode="&#xd2;" d="M0 231v52v917v53q0 23 8 65t43 83t104.5 70.5t192.5 29.5t192.5 -29.5t104.5 -70.5t43 -83t8 -65v-20v-981v-21q0 -25 -8 -65.5t-43 -81.5t-104.5 -70.5t-192.5 -29.5t-192.5 29.5t-104.5 70.5t-43 83t-8 64zM129 1872h229q4 -8 16.5 -26.5t28 -44t34 -56.5t36.5 -62 q43 -72 96 -159q-27 2 -51 8q-23 4 -42.5 10t-29.5 14q-8 8 -53 51.5t-97 96.5t-100.5 101t-66.5 67zM172 264q0 -18 5 -39.5t23.5 -41t52.5 -33t91 -13.5q59 0 94 13.5t53.5 32t24.5 40t6 37.5v23h2v917h-2v23q0 18 -6 39.5t-24.5 40t-53.5 32t-94 13.5q-57 0 -91 -13.5 t-52.5 -34t-23.5 -42t-5 -39.5v-19v-917v-19z" />
<glyph unicode="&#xd3;" d="M0 233v52v917v53q0 23 8 65t43 83t104.5 70.5t192.5 29.5t192.5 -29.5t104.5 -70.5t43 -83t8 -65v-20v-981v-21q0 -25 -8 -65.5t-43 -81.5t-104.5 -70.5t-192.5 -29.5t-192.5 29.5t-104.5 70.5t-43 83t-8 64zM129 1526q53 88 96 160q18 31 37 61.5t34 56t27.5 44 t16.5 26.5h227q-18 -18 -66 -66.5t-100.5 -101.5t-96.5 -96t-52 -51q-10 -8 -28.5 -14.5t-41.5 -10.5q-25 -6 -53 -8zM172 266q0 -18 5 -39.5t23.5 -41t52.5 -33t89 -13.5q59 0 94 13.5t54.5 32t25.5 40t6 37.5v23v917v23q0 18 -6 39.5t-25.5 40t-54.5 32t-94 13.5 q-55 0 -89 -13.5t-52.5 -34t-23.5 -42t-5 -39.5v-19v-917v-19z" />
<glyph unicode="&#xd4;" horiz-adv-x="899" d="M0 233v52v917v53q0 23 8 65t43 83t104.5 70.5t192.5 29.5t192.5 -29.5t104.5 -70.5t43 -83t8 -65v-20h2v-981h-2v-21q0 -25 -8 -65.5t-43 -81.5t-104.5 -70.5t-192.5 -29.5t-192.5 29.5t-104.5 70.5t-43 83t-8 64zM84 1528l211 346h55h53l211 -346q-27 2 -51 8 q-23 4 -42 9t-29 14q-4 4 -18.5 23.5t-34 48t-43 62t-46.5 66.5q-23 -31 -46 -64.5t-42.5 -63t-35 -49t-19.5 -23.5q-10 -8 -28.5 -13.5t-41.5 -9.5q-25 -6 -53 -8zM174 266q0 -18 5 -39.5t23.5 -41t52.5 -33t89 -13.5q59 0 94 13.5t54.5 32t25.5 40t6 37.5v23v917v23 q0 18 -6 39.5t-25.5 40t-54.5 32t-94 13.5q-55 0 -89 -13.5t-52.5 -34t-23.5 -42t-5 -39.5v-19v-917v-19z" />
<glyph unicode="&#xd5;" horiz-adv-x="899" d="M0 233v52v917v53q0 23 8 65t43 83t104.5 70.5t192.5 29.5t192.5 -29.5t104.5 -70.5t43 -83t8 -65v-20h2v-981h-2v-21q0 -25 -8 -65.5t-43 -81.5t-104.5 -70.5t-192.5 -29.5t-192.5 29.5t-104.5 70.5t-43 83t-8 64zM84 1528l211 346h55h53l211 -346q-27 2 -51 8 q-23 4 -42 9t-29 14q-4 4 -18.5 23.5t-34 48t-43 62t-46.5 66.5q-23 -31 -46 -64.5t-42.5 -63t-35 -49t-19.5 -23.5q-10 -8 -28.5 -13.5t-41.5 -9.5q-25 -6 -53 -8zM174 266q0 -18 5 -39.5t23.5 -41t52.5 -33t89 -13.5q59 0 94 13.5t54.5 32t25.5 40t6 37.5v23v917v23 q0 18 -6 39.5t-25.5 40t-54.5 32t-94 13.5q-55 0 -89 -13.5t-52.5 -34t-23.5 -42t-5 -39.5v-19v-917v-19z" />
<glyph unicode="&#xd6;" d="M0 233v52v917v53q0 23 8 65t43 83t104.5 70.5t192.5 29.5t192.5 -29.5t104.5 -70.5t43 -83t8 -65v-20v-981v-21q0 -25 -8 -65.5t-43 -81.5t-104.5 -70.5t-192.5 -29.5t-192.5 29.5t-104.5 70.5t-43 83t-8 64zM86 1565v204h172v-204h-172zM174 266q0 -18 5 -39.5t22.5 -41 t51.5 -33t91 -13.5q59 0 94 13.5t54.5 32t25.5 40t6 37.5v23v917v23q0 18 -6 39.5t-25.5 40t-54.5 32t-94 13.5q-57 0 -91 -13.5t-51.5 -34t-22.5 -42t-5 -39.5v-19v-917v-19zM436 1563v206h174v-206h-174z" />
<glyph unicode="&#xd8;" horiz-adv-x="958" d="M-68 2l76 158q-8 23 -9 42t-1 34v51v915v53q0 23 8 65t43 83t104.5 70.5t192.5 29.5q102 0 167 -21.5t103 -51.5l29 59h113l-76 -160q8 -23 10 -42t2 -32v-20v-979v-20q0 -25 -8 -66t-43 -82t-104.5 -70.5t-192.5 -29.5q-104 0 -168.5 20.5t-101.5 52.5l-29 -59h-115z M170 262q0 -18 7 -39.5t25.5 -40t51.5 -31t86 -12.5q59 0 94 13.5t54.5 33t25.5 41t6 37.5v23v706zM170 498l350 731q0 18 -7 38.5t-26.5 39t-54.5 31t-92 12.5q-55 0 -89 -13.5t-52.5 -33t-23.5 -42t-5 -38.5v-21v-704z" />
<glyph unicode="&#xd9;" d="M0 231v52v1202h174v-1202v-19q0 -18 5 -39.5t22.5 -42t51.5 -34t91 -13.5q59 0 94 13.5t54.5 32t25.5 40t6 39.5v23v1202h172v-1233v-21q0 -25 -8 -65.5t-43 -81.5t-104.5 -70.5t-192.5 -29.5t-192.5 29.5t-104.5 70.5t-43 83t-8 64zM127 1870l229 2q4 -8 16.5 -26.5 t28 -45t34 -57.5t36.5 -62q43 -72 96 -157q-27 2 -51 8q-23 4 -42.5 10t-29.5 14q-8 8 -53 51.5t-97 96.5t-100.5 101t-66.5 65z" />
<glyph unicode="&#xda;" d="M0 231v52v1202h172v-1202h2v-19q0 -18 5 -39.5t22.5 -42t51.5 -34t91 -13.5q59 0 94 13.5t54.5 32t25.5 40t6 39.5v23v1202h172v-1233v-21q0 -25 -8 -65.5t-43 -81.5t-104.5 -70.5t-192.5 -29.5t-192.5 29.5t-104.5 70.5t-43 83t-8 64zM127 1524q53 86 96 157 q18 31 37 62t34 57.5t27.5 45t16.5 26.5l229 -2q-18 -16 -66 -64.5t-100.5 -101.5t-96.5 -96t-54 -52q-10 -8 -28.5 -14t-41.5 -10q-25 -6 -53 -8z" />
<glyph unicode="&#xdb;" d="M0 231v52v1202h174v-1202v-19q0 -18 5 -39.5t23.5 -42t52.5 -34t89 -13.5q59 0 94 13.5t54.5 32t25.5 40t6 39.5v23v1202h172v-1233v-21q0 -25 -8 -65.5t-43 -81.5t-104.5 -70.5t-192.5 -29.5t-192.5 29.5t-104.5 70.5t-43 83t-8 64zM84 1524l211 348h55h53l211 -348 q-27 2 -51 8q-23 4 -42 10t-29 14q-4 4 -18.5 23.5t-34 48.5t-43 62.5t-46.5 66.5q-23 -31 -46 -64.5t-42.5 -63.5t-35 -49t-19.5 -24q-10 -8 -28.5 -14t-41.5 -10q-25 -6 -53 -8z" />
<glyph unicode="&#xdc;" d="M0 231v52v1202h174v-1202v-19q0 -18 5 -39.5t22.5 -42t51.5 -34t91 -13.5q59 0 94 13.5t54.5 32t25.5 40t6 39.5v23v1202h172v-1233v-21q0 -25 -8 -65.5t-43 -81.5t-104.5 -70.5t-192.5 -29.5t-192.5 29.5t-104.5 70.5t-43 83t-8 64zM86 1561v206h172v-206h-172z M436 1561v204h172v-204h-172z" />
<glyph unicode="&#xdd;" d="M0 231v58h172v-25q0 -18 5 -39.5t23.5 -41t52.5 -33t89 -13.5q59 0 94 13.5t54.5 32t25.5 40t6 37.5v23v180v20q0 25 -14 58.5t-68 52.5q-12 4 -30.5 10t-32.5 12l-154 52q-8 4 -12 4q-117 35 -164 100.5t-47 138.5v50v524h172v-549q2 -27 18.5 -57.5t65.5 -47.5 q8 -4 20.5 -8t26.5 -8q35 -14 83 -30.5t89 -30.5q12 -4 24.5 -7.5t22.5 -7.5v746h174v-971v-2v-49v-193v-39q0 -25 -8 -65.5t-43 -81.5t-104.5 -70.5t-192.5 -29.5t-192.5 29.5t-104.5 70.5t-43 83t-8 64zM131 1526q53 86 96 157q18 31 37 62t34 57.5t27.5 45t16.5 26.5 l229 -2q-12 -12 -38.5 -38t-59.5 -59.5t-68.5 -69.5t-67.5 -66.5t-54.5 -52t-28.5 -27.5q-10 -8 -28.5 -14.5t-41.5 -10.5q-25 -6 -53 -8z" />
<glyph unicode="&#xde;" d="M0 0v1485h174v-424q72 25 174 24q92 0 158.5 -19t108.5 -53t61.5 -79t19.5 -96v-50v-92v-49q0 -51 -19.5 -96t-61.5 -79t-108.5 -53.5t-158.5 -19.5q-102 0 -174 25v-424h-174zM174 678q0 -20 8 -43t28.5 -41.5t53.5 -29.5t84 -11q49 0 83 10t53.5 28.5t28.5 43t11 51.5 v113q-2 27 -11 51t-28.5 42.5t-53.5 29t-83 10.5q-51 0 -84 -11.5t-53.5 -30t-28.5 -40t-8 -41.5v-131z" />
<glyph unicode="&#xdf;" d="M0 2v1253q0 23 8 65t43 83t104.5 70.5t192.5 29.5t192.5 -29.5t104.5 -70.5t43 -82t8 -66v-335q0 -14 -2 -35t-10 -44.5t-23.5 -48t-42.5 -47.5q27 -20 42.5 -44.5t23.5 -48t10 -44t2 -35.5v-297h-2v-43q0 -23 -8 -64.5t-43 -82.5t-104.5 -70.5t-192.5 -29.5v153h4 q57 0 91 13.5t51.5 34t22.5 42t5 39.5v19h2v254q0 18 -5 39.5t-22.5 41t-50 34t-88.5 14.5h-10v153h10q53 0 86 13.5t50.5 32t23.5 39t6 38.5v281q0 16 -6 37.5t-25.5 40t-54.5 32t-94 13.5q-55 0 -89 -13.5t-52.5 -33t-23.5 -41t-5 -39.5v-1221h-172z" />
<glyph unicode="&#xe0;" d="M0 233v95q0 78 40 141t114 90q37 12 84 28.5t91 32t76.5 27.5t40.5 15q8 4 21.5 11t26 21.5t20.5 32.5t8 43v39q0 20 -8 42.5t-27.5 41t-53.5 30t-85 11.5q-102 0 -139 -43t-37 -100h-172v47q0 51 19.5 96t62.5 79t108.5 53t157.5 19q180 0 264 -70.5t84 -176.5v-97v-450 v-58q0 -39 -13 -83t-52 -80.5t-106.5 -61t-176.5 -24.5t-176.5 24.5t-106 61t-52 81t-13.5 82.5zM82 1485l227 2q4 -8 16.5 -26.5t28 -45t34 -57.5t36.5 -62q43 -72 96 -157q-27 2 -51 8q-23 4 -42.5 10t-29.5 14q-6 4 -28.5 27t-54 53.5t-67.5 67.5t-69 69.5t-58.5 59.5 t-37.5 37zM174 291q0 -78 37 -116t137 -38q102 0 138 40t36 114v254q-4 -23 -19.5 -33t-29.5 -14q-31 -10 -66.5 -23.5t-66.5 -23.5q-37 -12 -70 -25q-25 -10 -47 -29q-18 -16 -33.5 -41.5t-15.5 -64.5z" />
<glyph unicode="&#xe1;" d="M0 231v95q0 78 40 142t114 89q37 12 85 28.5t91 32t75.5 27.5t40.5 14q8 4 21.5 11.5t26 22t21.5 33.5t9 44v37q0 20 -8 42.5t-28.5 41t-54.5 30t-85 11.5q-102 0 -138 -43t-36 -101h-174v48q0 51 19.5 97t62.5 80t108.5 53t157.5 19q90 0 155.5 -19t108.5 -53t63.5 -79 t20.5 -98v-97v-450v-58q0 -39 -13 -82t-52 -79.5t-106.5 -61t-176.5 -24.5t-176.5 24.5t-106 61t-52 81t-13.5 80.5zM172 1137q53 86 96 157q18 31 37 61.5t34 57.5t27.5 45.5t16.5 26.5h229q-18 -18 -66 -66.5t-100.5 -101.5t-96.5 -96t-54 -52q-10 -8 -28.5 -14t-41.5 -10 q-25 -6 -53 -8zM174 289q0 -76 37 -114t137 -38q102 0 139 39t37 113v254q-4 -20 -19.5 -30.5t-31.5 -16.5q-31 -10 -66.5 -22.5t-66.5 -22.5q-37 -12 -70 -25q-25 -10 -47 -31q-18 -16 -33.5 -41.5t-15.5 -64.5z" />
<glyph unicode="&#xe2;" d="M0 231v95q0 78 40 142t114 89q37 12 85 28.5t91 32t75.5 27.5t40.5 14q8 4 21.5 11.5t26 22t21.5 33.5t9 44v37q0 20 -8 42.5t-28.5 41t-54.5 30t-85 11.5q-102 0 -138 -43t-36 -101h-174v48q0 51 19.5 97t62.5 80t108.5 53t157.5 19q90 0 155.5 -19t108.5 -53t63.5 -79 t20.5 -98v-97v-450v-58q0 -39 -13 -82t-52 -79.5t-106.5 -61t-176.5 -24.5t-176.5 24.5t-106 61t-52 81t-13.5 80.5zM86 1139l211 348h53h56l210 -348q-29 2 -53 8q-23 4 -41 10t-28 14q-4 4 -18.5 23.5t-34 47.5t-43 61.5t-48.5 66.5q-20 -31 -43.5 -64.5t-43 -62.5 t-35 -48t-19.5 -24q-10 -8 -28.5 -14t-41.5 -10q-25 -6 -53 -8zM174 289q0 -76 37 -114t137 -38q102 0 139 39t37 113v254q-4 -20 -19.5 -30.5t-31.5 -16.5q-31 -10 -66.5 -22.5t-66.5 -22.5q-37 -12 -70 -25q-25 -10 -47 -31q-18 -16 -33.5 -41.5t-15.5 -64.5z" />
<glyph unicode="&#xe3;" d="M0 233v95q0 78 39 141t115 90q37 12 84 28.5t91 32t76.5 27.5t40.5 15q8 4 20.5 11t25 21.5t21.5 32.5t9 43v39q0 20 -8 42.5t-27.5 41t-53.5 30t-85 11.5q-102 0 -139 -43t-37 -100h-172v47q0 51 19.5 96t62.5 79t108.5 53t157.5 19q180 0 264 -70.5t84 -176.5v-97v-450 v-58q0 -39 -13 -81.5t-52 -79.5t-106.5 -61.5t-176.5 -24.5t-176.5 24.5t-106 61.5t-52 80t-13.5 81zM14 1180q6 117 52 174q47 59 133 59q76 0 135 -39l61 -37q57 -35 86 -34q31 0 54 28q20 29 22 82h123q-6 -119 -51 -176t-133 -57q-76 0 -136 39l-59 36q-53 33 -86 33 q-35 1 -53 -26q-23 -29 -25 -82h-123zM172 291q0 -78 38 -116t138 -38q102 0 138 40t36 114v254q-4 -23 -19.5 -33t-31.5 -14q-31 -10 -66.5 -22.5t-66.5 -22.5q-37 -12 -70 -25q-25 -10 -47 -31q-18 -16 -33.5 -41.5t-15.5 -64.5z" />
<glyph unicode="&#xe4;" d="M0 233v95q0 78 40 141t114 90q37 12 85 28.5t91 32t75.5 27.5t40.5 15q8 4 21.5 11t26 21.5t21.5 32.5t9 43v39q0 20 -8 41.5t-28.5 40t-54.5 30t-85 11.5q-102 0 -138 -42t-36 -102h-174v50q0 51 19.5 96t62.5 79t108.5 53t157.5 19q182 0 265 -70.5t83 -176.5v-97v-450 v-58q0 -39 -13 -83t-52 -80.5t-106.5 -61t-176.5 -24.5t-176.5 24.5t-106 61t-52 81t-13.5 82.5zM88 1178v204h174v-204h-174zM174 291q0 -78 37 -116t137 -38q102 0 139 40t37 114v254q-4 -23 -20.5 -33t-30.5 -14q-31 -10 -66.5 -23.5t-66.5 -23.5q-37 -12 -70 -25 q-25 -10 -47 -29q-18 -16 -33.5 -41.5t-15.5 -64.5zM438 1178v204h174v-204h-174z" />
<glyph unicode="&#xe6;" horiz-adv-x="1419" d="M0 231v95q0 78 39 142t115 89q37 12 84 28.5t91 32t76.5 27.5t40.5 14q8 4 21.5 11.5t26 22t20.5 32.5t8 43v39q0 20 -8 42.5t-27.5 41t-53.5 30t-85 11.5q-102 0 -139 -43t-37 -101h-172v48q0 51 19.5 97t62.5 80t108.5 53t157.5 19q88 0 152.5 -18t107.5 -51 q39 29 101.5 49t160.5 20q123 0 193 -30.5t104.5 -71.5t43 -83t8.5 -64v-52v-47q0 -35 -12.5 -78t-61.5 -92q-23 -23 -51.5 -36t-51.5 -19q-27 -8 -55 -6h-156q-55 0 -95 -40t-40 -95v-82v-10q0 -29 5.5 -47.5t13.5 -30.5q8 -14 18 -25q10 -12 29 -20q16 -8 42.5 -14.5 t65.5 -6.5q55 0 86 11.5t43 21.5q27 20 37.5 48t10.5 60h172v-47q0 -55 -22.5 -103t-72.5 -83q-35 -25 -96 -42t-158 -17q-96 0 -158.5 19.5t-101.5 47.5q-41 -29 -103.5 -48t-158.5 -19q-109 0 -176.5 24.5t-106 61t-52 81t-13.5 80.5zM172 289q0 -76 38 -115t138 -39 q102 0 138 40t36 114v82v172q-4 -20 -19.5 -30.5t-31.5 -16.5q-31 -10 -65.5 -22.5t-65.5 -22.5q-37 -12 -72 -25q-25 -10 -47 -31q-18 -16 -33.5 -41.5t-15.5 -64.5zM696 594q2 18 17.5 29.5t34 17.5t37 8t28.5 2h117q47 0 82 34t35 83v16v19q0 18 -5.5 39.5t-24 42t-52 34 t-88.5 13.5q-57 0 -93 -13.5t-55.5 -32t-26 -40t-6.5 -39.5v-23v-16v-174z" />
<glyph unicode="&#xe7;" d="M0 231v95v462v48q0 51 19.5 97t61.5 80t108.5 53t158.5 19q180 0 264 -71.5t84 -177.5v-48h-174v19q0 20 -8 42.5t-27.5 41t-53.5 30t-85 11.5q-102 0 -139 -43t-37 -101v-499q0 -76 38 -114t138 -38q102 0 138 39t36 113h174v-58q0 -37 -12 -78.5t-48 -77.5t-97.5 -61.5 t-159.5 -29.5l-68 -84l4 -4q20 14 68 14q68 0 119 -37q53 -35 53 -113q0 -51 -23 -86q-27 -37 -61 -57q-37 -23 -82 -31q-23 -4 -44 -6t-44 -2q-25 0 -48.5 3t-45.5 7q-23 6 -46.5 13.5t-47.5 15.5l37 90q23 -8 59 -18q31 -8 65 -8h21q12 0 22 2q23 2 41 12q18 8 31 18 q12 12 12 31q0 31 -26 45q-27 18 -70 18q-12 0 -22.5 -1t-20.5 -3q-14 -2 -41 -12l-35 57l107 138q-90 6 -147.5 31.5t-89 61.5t-44 77t-12.5 75z" />
<glyph unicode="&#xe8;" d="M0 233v48v92v413v52q0 25 8 65.5t43 81.5t104.5 70.5t192.5 29.5t192.5 -29.5t104.5 -70.5t43 -83t8 -64v-52v-47q0 -35 -13 -78t-60 -92q-25 -25 -52.5 -37t-52.5 -18q-29 -8 -55 -6h-156q-53 0 -94 -40t-41 -95v-92q0 -51 18 -80q8 -14 19 -25q10 -10 31 -18 q16 -8 42.5 -14.5t65.5 -6.5q53 0 84 11.5t43 19.5v2q27 20 37 48t10 61h174v-50q0 -55 -23.5 -102t-72.5 -82q-35 -25 -95.5 -43t-156.5 -18q-139 0 -210.5 38.5t-102.5 86.5q-37 55 -35 124zM82 1487h229q4 -8 16.5 -26.5t28 -44t34 -56.5t36.5 -62q43 -72 96 -159 q-27 2 -51 8q-23 4 -42.5 10t-29.5 14q-8 8 -53 51.5t-97 96.5t-100.5 101t-66.5 67zM172 596q4 18 18.5 29.5t33 17.5t37 8t28.5 2h117q49 0 82.5 34t33.5 83v16v19q0 18 -5 39.5t-23.5 41t-52 33t-89.5 13.5q-57 0 -93 -13.5t-55.5 -32t-25.5 -40t-6 -37.5v-23v-16v-174z " />
<glyph unicode="&#xe9;" d="M0 233v48v92v413v52q0 25 8 65.5t43 81.5t104.5 70.5t192.5 29.5t192.5 -29.5t104.5 -70.5t43 -83t8 -64v-52v-47q0 -35 -12 -78t-61 -92q-25 -25 -52.5 -37t-50.5 -18q-27 -8 -55 -6h-156q-55 0 -95 -40t-40 -95v-92q0 -51 19 -80q8 -14 18 -25q10 -10 29 -18 q16 -8 42.5 -14.5t65.5 -6.5q55 0 86 11.5t43 19.5v2q27 20 37 48t10 61h172v-50q0 -55 -22.5 -102t-71.5 -82q-35 -25 -96.5 -43t-157.5 -18q-70 0 -121 10t-88 27.5t-61.5 40t-40.5 47.5q-37 55 -37 124zM174 596q2 18 17.5 29.5t34 17.5t37 8t26.5 2h119q47 0 81.5 34 t34.5 83v16v19q0 18 -5 39.5t-23.5 41t-52 33t-89.5 13.5q-57 0 -93 -13.5t-55.5 -32t-25.5 -40t-6 -37.5v-23v-16v-174zM174 1139q53 88 96 159q18 31 37 62t34 56.5t27.5 44t16.5 26.5h229q-18 -18 -66 -66.5t-100.5 -101.5t-96.5 -96t-54 -52q-10 -8 -28.5 -14t-41.5 -10 q-25 -6 -53 -8z" />
<glyph unicode="&#xea;" d="M0 231v48v92v413v2v52q0 25 8 65.5t43 81.5t104.5 70.5t192.5 29.5t192.5 -29.5t104.5 -70.5t43 -83t8 -64v-52v-2v-45q0 -35 -12 -78t-61 -92q-25 -25 -52.5 -37t-50.5 -18q-27 -8 -55 -8h-156q-55 0 -95 -39t-40 -96v-92q0 -49 19 -78q8 -14 18 -25q10 -10 29 -18 q16 -8 42.5 -14.5t65.5 -6.5q55 0 86 10.5t43 20.5q27 20 37 49t10 62h172v-50q0 -55 -22.5 -102t-71.5 -82q-35 -25 -96.5 -43t-157.5 -18q-70 0 -121 11t-88 28.5t-61.5 40t-40.5 45.5q-37 53 -37 122zM86 1139l211 348h53h53l211 -348q-27 2 -51 8q-23 4 -42 10t-29 14 q-4 4 -18.5 23.5t-34 47.5t-42 61.5t-47.5 66.5q-20 -31 -43.5 -64.5t-44 -62.5t-35 -48t-18.5 -24q-10 -8 -28.5 -14t-41.5 -10q-25 -6 -53 -8zM174 594q2 18 17.5 29.5t34 18.5t37 9t28.5 2h117q47 0 81.5 34t34.5 81v16v2v19q0 18 -5 39.5t-23.5 41t-52 33t-89.5 13.5 q-57 0 -93 -13.5t-55.5 -32t-25.5 -40t-6 -39.5v-21v-2v-16v-174z" />
<glyph unicode="&#xeb;" d="M0 231v48v92v413v2v52q0 25 8 65.5t43 81.5t104.5 70.5t192.5 29.5t192.5 -29.5t104.5 -70.5t43 -83t8 -64v-52v-2v-45q0 -35 -12 -78t-61 -92q-25 -25 -52.5 -37t-50.5 -18q-27 -8 -55 -8h-156q-55 0 -95 -39t-40 -96v-92q0 -49 19 -78q8 -14 18 -25q10 -10 29 -18 q16 -8 42.5 -14.5t65.5 -6.5q55 0 86 11.5t43 19.5q27 20 37 49t10 62h172v-50q0 -55 -22.5 -102t-71.5 -82q-35 -25 -96.5 -43t-157.5 -18q-70 0 -121 11t-88 28.5t-61.5 40t-40.5 45.5q-37 53 -37 122zM84 1176v204h174v-204h-174zM174 594q2 18 17.5 29.5t34 18.5t37 9 t26.5 2h119q47 0 81.5 34t34.5 81v16v2v19q0 18 -5 39.5t-23.5 41t-52 33t-89.5 13.5q-57 0 -93 -13.5t-55.5 -32t-25.5 -40t-6 -39.5v-21v-2v-16v-174zM434 1176v204h174v-204h-174z" />
<glyph unicode="&#xec;" horiz-adv-x="641" d="M0 1485l229 2q4 -8 16.5 -26.5t28 -45t34 -57.5t36.5 -62q43 -71 96 -157q-27 2 -51 8q-23 4 -42 10t-30 14q-8 8 -53 51.5t-97 96.5t-100.5 101t-66.5 65zM133 0v1069h172v-1069h-172z" />
<glyph unicode="&#xed;" horiz-adv-x="638" d="M0 1139q53 86 96 157q18 31 37 62t34 57.5t27.5 45t16.5 26.5l227 -2q-10 -10 -36.5 -37t-59.5 -59.5t-68.5 -69.5t-67.5 -67.5t-54.5 -52t-28.5 -28.5q-10 -8 -28.5 -14t-41.5 -10q-25 -6 -53 -8zM137 0v1069h172v-1069h-172z" />
<glyph unicode="&#xee;" horiz-adv-x="729" d="M0 1141l209 346h55h53l211 -346q-27 2 -51 8q-23 4 -42 9t-29 13q-4 4 -18.5 23.5t-34 48.5t-43 62.5t-46.5 66.5q-20 -31 -43.5 -64.5t-44 -63.5t-35 -49t-18.5 -24q-10 -8 -28.5 -13t-41.5 -9q-25 -6 -53 -8zM174 0v1071h174v-1071h-174z" />
<glyph unicode="&#xef;" horiz-adv-x="724" d="M0 1176v204h174v-204h-174zM174 0v1069h172v-1069h-172zM350 1176v204h174v-204h-174z" />
<glyph unicode="&#xf1;" horiz-adv-x="899" d="M0 0v801v37q0 25 8 65.5t44 81.5t105.5 70.5t192.5 29.5t192.5 -29.5t104.5 -70.5t43 -83t8 -64v-21v-817h-174v786v19q0 18 -5 39.5t-23.5 41t-52 33t-89.5 13.5q-57 0 -93 -13.5t-55.5 -32t-25.5 -40t-6 -37.5v-23v-786h-174zM14 1180q6 117 52 174q47 59 133 59 q76 0 135 -39l61 -37q57 -35 86 -34q31 0 54 28q20 29 22 82h123q-6 -119 -51 -176t-133 -57q-76 0 -136 39l-59 36q-53 33 -86 33q-35 1 -53 -26q-23 -29 -25 -82h-123z" />
<glyph unicode="&#xf2;" d="M0 231v23v584q0 23 8 64.5t43 82.5t104.5 70.5t192.5 29.5t192.5 -29.5t104.5 -70.5t43 -82t8 -65v-574v-33q0 -25 -8 -65.5t-43 -81.5t-104.5 -70.5t-192.5 -29.5t-192.5 29.5t-104.5 70.5t-43 83t-8 64zM82 1487h229q4 -8 16.5 -26.5t28 -44t34 -56.5t36.5 -62 q43 -72 96 -159q-27 2 -51 8q-23 4 -42.5 10t-29.5 14q-8 8 -53 51.5t-97 96.5t-100.5 101t-66.5 67zM172 264q0 -16 5 -38.5t23.5 -42t52.5 -33t89 -13.5q59 0 94 13.5t54.5 32t25.5 40t6 39.5v23v499v23q0 18 -6 39.5t-25.5 40t-54.5 32t-94 13.5q-55 0 -89 -13.5 t-52.5 -33t-23.5 -42t-5 -38.5v-21v-499v-21z" />
<glyph unicode="&#xf3;" d="M0 233v21v584q0 25 8 65.5t43 81.5t104.5 70.5t192.5 29.5t192.5 -29.5t104.5 -69.5t43 -82t8 -66v-574v-31q0 -25 -8 -66.5t-43 -82.5t-104.5 -70.5t-192.5 -29.5t-192.5 30.5t-104.5 71.5t-43 83t-8 64zM174 266q0 -18 5 -39.5t23.5 -42t52.5 -34t89 -13.5 q59 0 94 13.5t54.5 32t25.5 40t6 39.5v23v501v23q0 16 -6 37.5t-25.5 40t-54.5 32t-94 13.5q-55 0 -89 -13.5t-52.5 -33t-23.5 -41t-5 -39.5v-19v-501v-19zM250 1139q53 88 96 159q18 31 36.5 62t34 56.5t27 44t15.5 26.5h229l-66.5 -66.5t-100.5 -101.5t-96 -96t-54 -52 q-8 -8 -28.5 -14t-41.5 -10q-23 -6 -51 -8z" />
<glyph unicode="&#xf4;" d="M0 233v21v584q0 25 8 65.5t43 81.5t104.5 70.5t192.5 29.5t192.5 -29.5t104.5 -69.5t43 -82t8 -66v-574v-31q0 -25 -8 -66.5t-43 -82.5t-104.5 -70.5t-192.5 -29.5t-192.5 30.5t-104.5 71.5t-43 83t-8 64zM86 1145l211 346h53h56l208 -346q-27 2 -51 8q-23 4 -42 10 t-29 15q-4 4 -17.5 22.5t-33 47t-43 62t-48.5 66.5q-20 -31 -43.5 -64.5t-43 -62t-35 -48t-19.5 -23.5q-10 -8 -28.5 -14.5t-41.5 -10.5q-25 -6 -53 -8zM172 266q0 -18 5 -39.5t23.5 -42t52.5 -34t89 -13.5q59 0 95 13.5t54.5 32t24.5 40t6 39.5v23v501v23q0 16 -6 37.5 t-24.5 40t-54.5 32t-95 13.5q-55 0 -89 -13.5t-52.5 -33t-23.5 -41t-5 -39.5v-19v-501v-19z" />
<glyph unicode="&#xf5;" d="M0 233v21v584q0 25 8 65.5t43 81.5t104.5 70.5t192.5 29.5t192.5 -29.5t104.5 -69.5t43 -82t8 -66v-574v-31q0 -25 -8 -66.5t-43 -82.5t-104.5 -70.5t-192.5 -29.5t-192.5 30.5t-104.5 71.5t-43 83t-8 64zM14 1180q6 117 52 174q47 59 133 59q76 0 135 -39l61 -37 q57 -35 86 -34q31 0 54 28q20 29 22 82h123q-6 -119 -51 -176t-133 -57q-76 0 -136 39l-59 36q-53 33 -86 33q-35 1 -53 -26q-23 -29 -25 -82h-123zM172 266q0 -18 5 -39.5t23.5 -42t52.5 -34t89 -13.5q59 0 95 13.5t54.5 32t24.5 40t6 39.5v23v501v23q0 16 -6 37.5 t-24.5 40t-54.5 32t-95 13.5q-55 0 -89 -13.5t-52.5 -33t-23.5 -41t-5 -39.5v-19v-501v-19z" />
<glyph unicode="&#xf6;" d="M0 233v21v584q0 25 8 65.5t43 81.5t104.5 70.5t192.5 29.5t192.5 -29.5t104.5 -69.5t43 -82t8 -66v-574v-31q0 -25 -8 -66.5t-43 -82.5t-104.5 -70.5t-192.5 -29.5t-192.5 30.5t-104.5 71.5t-43 83t-8 64zM82 1176v204h172v-204h-172zM172 266q0 -18 5 -39.5t23.5 -42 t52.5 -34t89 -13.5q59 0 94 13.5t54.5 32t25.5 40t6 39.5v23v501v23q0 16 -6 37.5t-25.5 40t-54.5 32t-94 13.5q-55 0 -89 -13.5t-52.5 -33t-23.5 -41t-5 -39.5v-19v-501v-19zM432 1176v204h172v-204h-172z" />
<glyph unicode="&#xf7;" horiz-adv-x="1048" d="M0 -150l852 1936h135l-852 -1936h-135z" />
<glyph unicode="&#xf8;" horiz-adv-x="960" d="M-63 4l86 131q-14 29 -18.5 56.5t-4.5 44.5v20v584q0 25 9 65.5t44 81.5t104.5 70.5t190.5 29.5q96 0 157.5 -17t100.5 -46l31 47h123l-84 -129q14 -31 17 -57.5t3 -44.5v-574v-30q0 -25 -8 -66t-43 -82t-104.5 -70.5t-192.5 -29.5q-94 0 -155.5 18.5t-100.5 46.5 l-33 -49h-122zM174 365l332 507q-16 25 -53 43.5t-109 18.5q-55 0 -89 -13.5t-52.5 -33t-23.5 -41t-5 -39.5v-19v-423zM190 203q16 -25 51 -44.5t103 -19.5q59 0 94 13.5t54.5 33t25.5 41t6 37.5v23v426z" />
<glyph unicode="&#xf9;" d="M0 233v23v815h172v-784h2v-21q0 -16 5 -38.5t22.5 -42t51.5 -33t91 -13.5q59 0 94 13.5t53.5 32t24.5 40t6 39.5v23h2v784h172v-801v-37q0 -25 -8 -65.5t-43 -81.5t-104.5 -70.5t-192.5 -29.5t-192.5 29.5t-104.5 70.5t-43 83t-8 64zM82 1487h229q4 -8 16.5 -26.5t28 -44 t34 -56.5t36.5 -62q43 -72 96 -159q-27 2 -51 8q-23 4 -42.5 10t-29.5 14q-8 8 -53 51.5t-97 96.5t-100.5 101t-66.5 67z" />
<glyph unicode="&#xfa;" d="M0 233v23v815h172v-784h2v-21q0 -16 5 -38.5t22.5 -42t51.5 -33t91 -13.5q59 0 94 13.5t53.5 32t24.5 40t6 39.5v23h2v784h172v-801v-37q0 -25 -8 -65.5t-43 -81.5t-104.5 -70.5t-192.5 -29.5t-192.5 29.5t-104.5 70.5t-43 83t-8 64zM174 1139q53 88 96 159q18 31 37 62 t34 56.5t27.5 44t16.5 26.5h229q-18 -18 -66 -66.5t-100.5 -101.5t-96.5 -96t-54 -52q-10 -8 -28.5 -14t-41.5 -10q-25 -6 -53 -8z" />
<glyph unicode="&#xfb;" d="M0 250v20v815h174v-784v-18q0 -18 5 -40t23.5 -42.5t52.5 -33.5t89 -13q59 0 94 13t54.5 31.5t25.5 40t6 40.5v22v784h172v-800v-35q0 -25 -8 -67t-43 -83t-104.5 -70.5t-192.5 -29.5t-192.5 30.5t-104.5 71.5t-43 83t-8 65zM84 1155l211 348h53h55l209 -348q-27 2 -51 8 q-23 4 -42 10.5t-30 14.5q-4 4 -17 23.5t-32.5 48t-43 62.5t-48.5 67q-20 -31 -43.5 -65t-43 -63.5t-35 -49t-19.5 -23.5q-10 -8 -28.5 -14.5t-41.5 -10.5q-25 -6 -53 -8z" />
<glyph unicode="&#xfc;" horiz-adv-x="899" d="M0 270v815h174v-784v-18q0 -18 5 -40t23.5 -42.5t52.5 -33.5t89 -13q59 0 94 13t54.5 31.5t25.5 40t6 40.5v22v784h174v-800v-35q0 -25 -8 -67t-43 -83t-104.5 -70.5t-192.5 -29.5t-192.5 30.5t-104.5 71.5t-43 83t-8 65v20h-2zM86 1192v207h174v-207h-174zM438 1192v207 h172v-207h-172z" />
<glyph unicode="&#xfd;" horiz-adv-x="899" d="M0 -135h174v-19q0 -18 5 -39.5t23.5 -42t52.5 -34t89 -13.5q59 0 94 13.5t54.5 32t25.5 40t6 39.5v2v37q0 25 -9 43.5t-21.5 32.5t-25.5 21.5t-22 11.5q-8 2 -40.5 14t-75.5 27.5t-91.5 32t-84.5 28.5q-74 27 -114 90.5t-40 141.5v47v696h174v-696v-11q0 -39 15.5 -64.5 t33.5 -41.5q23 -18 47 -29q33 -12 70 -24q31 -10 66.5 -23.5t66.5 -23.5q16 -4 31.5 -14.5t19.5 -33.5v254v11v696h174v-1227h-2v-28q0 -25 -8 -66t-43 -82t-104.5 -70.5t-192.5 -29.5t-192.5 29.5t-104.5 70.5t-43 83t-8 65v53zM250 1139q53 88 96 159q18 31 36.5 62 t34 56.5t27 44t15.5 26.5h229l-66.5 -66.5t-100.5 -101.5t-96 -96t-54 -52q-8 -8 -28.5 -14t-41.5 -10q-23 -6 -51 -8z" />
<glyph unicode="&#xfe;" d="M0 -416v1901h174v-426q76 27 174 26q92 0 157.5 -19t108.5 -53t62.5 -79t19.5 -96v-50v-509v-48q0 -51 -19.5 -96t-62.5 -78.5t-108.5 -53t-157.5 -19.5q-102 0 -174 24v-424h-174zM174 260q0 -20 8 -42.5t28.5 -41t53.5 -30t84 -11.5q49 0 83 11.5t53.5 30t28.5 43 t11 50.5v527q-2 29 -11 53t-28.5 42.5t-53.5 29t-83 10.5q-51 0 -84 -11.5t-53.5 -30t-28.5 -41t-8 -42.5v-547z" />
<glyph unicode="&#xff;" d="M0 -135h172v-21q0 -18 5 -39.5t23.5 -41t52.5 -33t91 -13.5q59 0 94 13.5t53.5 32t24.5 40t6 37.5v4v37q0 25 -8 43.5t-20.5 32.5t-25.5 21.5t-22 11.5q-8 2 -40.5 14t-76.5 27.5t-91.5 32t-83.5 28.5q-74 27 -114 90.5t-40 141.5v47v696h174v-696v-11q0 -39 15.5 -64.5 t33.5 -41.5q23 -20 47 -31q33 -12 70 -24q31 -10 66.5 -22.5t66.5 -22.5q14 -4 29.5 -14.5t19.5 -33.5v254v11h2v696h172v-1227v-28q0 -25 -8 -66t-43 -82t-104.5 -70.5t-192.5 -29.5t-192.5 29.5t-104.5 70.5t-43 83t-8 65v53zM88 1174v204h174v-204h-174zM438 1171v207 h174v-207h-174z" />
<glyph unicode="&#x152;" horiz-adv-x="1357" d="M0 233v52v917v51q0 23 8 65t43 83t104.5 71.5t192.5 30.5q96 0 158.5 -18.5t101.5 -46.5q59 49 148 49h63t123 1t129 1h86v-146h-221h-123q-51 0 -82 -32.5t-35 -79.5v-406h371v-161h-371v-404q4 -47 35 -81t82 -34h123h221v-143h-401q-47 0 -83 13.5t-65 35.5 q-39 -29 -100.5 -47t-159.5 -18q-123 0 -192.5 29.5t-104.5 70.5t-43 83t-8 64zM174 266q0 -18 5 -39.5t22.5 -41t51.5 -33t91 -13.5q55 0 90 11.5t54.5 29t26.5 38t9 38.5v31v917v27q-2 18 -9 38.5t-26.5 38t-54.5 30t-90 12.5q-57 0 -91 -13.5t-51.5 -34t-22.5 -42 t-5 -39.5v-19v-917v-19z" />
<glyph unicode="&#x153;" horiz-adv-x="1419" d="M-2 254v584h2q0 23 8 64.5t43 82.5t104.5 70.5t192.5 29.5q96 0 158.5 -19t101.5 -48q39 29 101.5 48t160.5 19q123 0 193 -29.5t104.5 -70.5t43 -83t8.5 -64v-52v-2v-45q0 -35 -12.5 -78t-61.5 -92q-25 -25 -52.5 -37t-50.5 -18q-27 -8 -55 -8h-158q-51 0 -90 -36 t-43 -89v-115q2 -23 8.5 -41t12.5 -28q8 -12 16 -21q10 -10 29 -18q16 -8 42.5 -14.5t65.5 -6.5q55 0 85 10.5t42 20.5q29 20 38 49t9 62h175v-50q0 -55 -22.5 -102t-74.5 -82q-35 -25 -95 -43t-157 -18q-98 0 -159.5 20.5t-100.5 48.5q-39 -31 -101.5 -50t-160.5 -19 q-123 0 -192.5 29.5t-104.5 70.5t-43 83t-8 64v23h-2zM172 266q0 -18 5 -39.5t23.5 -42t52.5 -34t89 -13.5q53 0 88 11.5t54.5 29t27.5 36.5t10 36v29v92v413v2v33q-2 18 -10 38t-27.5 36t-54.5 27.5t-88 11.5q-55 0 -89 -13.5t-52.5 -33t-23.5 -41t-5 -39.5v-21v-499v-19z M696 598q4 16 18.5 27.5t33 17.5t37 8t26.5 2h119q47 0 80.5 34t33.5 81v16v2v19q0 18 -5 39.5t-22.5 41t-51 33t-91.5 13.5q-53 0 -86.5 -11.5t-54 -27.5t-28 -35.5t-9.5 -38.5v-221z" />
<glyph unicode="&#x178;" d="M0 231v58h172v-25q0 -18 5 -39.5t23.5 -41t52.5 -33t89 -13.5q59 0 94 13.5t54.5 32t25.5 40t6 37.5v23v180v20q0 25 -14 58.5t-68 52.5q-12 4 -30.5 10t-32.5 12l-154 52q-8 4 -12 4q-117 35 -164 100.5t-47 138.5v50v524h172v-549q2 -27 18.5 -57.5t65.5 -47.5 q8 -4 20.5 -8t26.5 -8q35 -14 83 -30.5t89 -30.5q12 -4 24.5 -7.5t22.5 -7.5v746h174v-971v-2v-49v-193v-39q0 -25 -8 -65.5t-43 -81.5t-104.5 -70.5t-192.5 -29.5t-192.5 29.5t-104.5 70.5t-43 83t-8 64zM86 1565v204h172v-204h-172zM436 1563v206h174v-206h-174z" />
<glyph unicode="&#x2c6;" horiz-adv-x="735" d="M86 1145l211 346h53h56l208 -346q-27 2 -51 8q-23 4 -42 10t-29 15q-4 4 -17.5 22.5t-33 47t-43 62t-48.5 66.5q-20 -31 -43.5 -64.5t-43 -62t-35 -48t-19.5 -23.5q-10 -8 -28.5 -14.5t-41.5 -10.5q-25 -6 -53 -8z" />
<glyph unicode="&#x2000;" horiz-adv-x="937" />
<glyph unicode="&#x2001;" horiz-adv-x="1874" />
<glyph unicode="&#x2002;" horiz-adv-x="937" />
<glyph unicode="&#x2003;" horiz-adv-x="1874" />
<glyph unicode="&#x2004;" horiz-adv-x="624" />
<glyph unicode="&#x2005;" horiz-adv-x="468" />
<glyph unicode="&#x2006;" horiz-adv-x="312" />
<glyph unicode="&#x2007;" horiz-adv-x="312" />
<glyph unicode="&#x2008;" horiz-adv-x="234" />
<glyph unicode="&#x2009;" horiz-adv-x="374" />
<glyph unicode="&#x200a;" horiz-adv-x="104" />
<glyph unicode="&#x2010;" d="M0 438v146h696v-146h-696z" />
<glyph unicode="&#x2011;" d="M0 438v146h696v-146h-696z" />
<glyph unicode="&#x2012;" d="M0 438v146h696v-146h-696z" />
<glyph unicode="&#x2013;" horiz-adv-x="1024" />
<glyph unicode="&#x2014;" horiz-adv-x="1421" d="M0 438v146h1221v-146h-1221z" />
<glyph unicode="&#x2018;" horiz-adv-x="380" d="M0 1198v180q0 104 44 164t136 60q0 -10 -1 -29t-1 -29q-33 -2 -52.5 -17.5t-28.5 -38t-9 -50.5q0 -29 2 -60h88v-180h-178z" />
<glyph unicode="&#x2019;" horiz-adv-x="376" d="M-2 1198v57q35 4 53.5 18.5t27.5 37t10 52.5t-1 60h-57q-16 0 -31 -2v181h176v-181q0 -104 -44 -163.5t-134 -59.5z" />
<glyph unicode="&#x201c;" horiz-adv-x="655" d="M0 1198v180q0 104 44 164t136 60q0 -10 -1 -29t-1 -29q-33 -2 -52.5 -17.5t-28.5 -38t-9 -50.5q0 -29 2 -60h88v-180h-178zM276 1198v180q0 104 44.5 164t134.5 60v-58q-33 -2 -52.5 -17.5t-28.5 -38t-9 -50.5q0 -29 2 -60h86v-180h-177z" />
<glyph unicode="&#x201d;" horiz-adv-x="653" d="M-2 1198v57q35 4 53.5 18.5t27.5 37t10 52.5t-1 60h-57q-16 0 -31 -2v181h176v-181q0 -104 -44 -163.5t-134 -59.5zM274 1198v57q35 4 53.5 18.5t28 37t10.5 52.5t-4 60h-55q-16 0 -31 -2v181h177v-181q0 -104 -44 -163.5t-135 -59.5z" />
<glyph unicode="&#x201e;" horiz-adv-x="653" d="M-2 -166q35 2 53.5 17.5t27.5 38t10 52t-1 60.5h-57q-16 0 -31 -2v180h176v-180q0 -104 -44 -163.5t-134 -59.5v57zM274 -166q35 2 53.5 17.5t28 38t10.5 52t-4 60.5h-55q-16 0 -31 -2v180h177v-180q0 -104 -44 -163.5t-135 -59.5v57z" />
<glyph unicode="&#x2022;" horiz-adv-x="509" d="M2 512q0 63 44 108.5t110 45.5q63 0 108 -45.5t45 -108.5t-45 -108.5t-108 -45.5q-66 0 -110 45.5t-44 108.5z" />
<glyph unicode="&#x2026;" horiz-adv-x="966" d="M0 0v180h176v-180h-176zM297 0v180h176v-180h-176zM590 0v180h176v-180h-176z" />
<glyph unicode="&#x202f;" horiz-adv-x="374" />
<glyph unicode="&#x2039;" horiz-adv-x="675" d="M0 588l313 350h162l-313 -350l313 -352h-162z" />
<glyph unicode="&#x203a;" horiz-adv-x="675" d="M0 229l313 351l-313 352h162l313 -352l-313 -351h-162z" />
<glyph unicode="&#x205f;" horiz-adv-x="468" />
<glyph unicode="&#x20ac;" horiz-adv-x="1032" d="M0 516l43 152h154v147h-80h-117l43 154h154v243h2v39q0 39 14 81t43 76t73 55.5t101 21.5h401v-144h-219h-125q-53 0 -83.5 -35.5t-30.5 -86.5v-19h-4v-231h426l-43 -154h-383v-147h340l-41 -152h-299v-231h4v-21q0 -49 30.5 -85t83.5 -36h125h219v-145h-110 q-66 0 -127.5 1t-108.5 1h-55q-57 0 -101 21.5t-73 55.5t-43 75t-14 79v25h-2v260h-197z" />
<glyph unicode="&#x2122;" horiz-adv-x="2205" d="M0 1343v146h696v-146h-262v-729h-172v729h-262zM786 614v662q2 29 15.5 67.5t50.5 74.5t104.5 60.5t178.5 24.5q98 0 160.5 -19.5t101.5 -47.5q39 29 100.5 48t159.5 19q106 0 172.5 -22.5t104.5 -56t52.5 -71.5t18.5 -67v-672h-172v613q0 16 -6 37.5t-25.5 40t-54.5 32 t-94 13.5q-55 0 -89 -13.5t-52.5 -33t-23.5 -41t-5 -39.5v-609h-174v613q0 16 -6.5 37.5t-26 40t-54 32t-94.5 13.5q-55 0 -88.5 -13.5t-52 -33t-24 -41t-5.5 -39.5v-609h-172z" />
<glyph unicode="&#xe000;" horiz-adv-x="1064" d="M0 0v1065h1065v-1065h-1065z" />
<glyph unicode="&#xfb01;" horiz-adv-x="1030" d="M0 924v145h133v143v39q0 18 4 48t21.5 63t51.5 62.5t91 50.5q35 12 78 19t100 7q123 0 192.5 -29.5t104.5 -70.5t43 -83t8 -65v-51h-174v19q0 14 -3 30.5t-12 32.5t-26.5 30.5t-46.5 22.5q-18 4 -39.5 7.5t-50.5 3.5q-55 0 -89 -13.5t-52.5 -34t-23.5 -42t-5 -39.5v-19 v-131h352h172v-1069h-172v924h-352v-924h-172v924h-133z" />
<glyph unicode="&#xfb02;" horiz-adv-x="1028" d="M0 924v145h133v143v39q0 18 4 48t21.5 63t51.5 62.5t93 50.5q35 12 78 19t98 7q123 0 192.5 -29.5t104.5 -70.5t43 -83t8 -65v-51v-1202h-174v1202v19q0 14 -3 30.5t-12 32.5t-26.5 30.5t-46.5 22.5q-37 10 -88 11q-57 0 -91 -13.5t-51.5 -34t-22.5 -42t-5 -39.5v-19 v-131h172v-145h-172v-924h-174v924h-133z" />
</font>
</defs>
</svg>
