<?xml version="1.0" encoding="utf-8"?>
<!-- Generator: Adobe Illustrator 16.2.1, SVG Export Plug-In . SVG Version: 6.00 Build 0)  -->
<!DOCTYPE svg PUBLIC "-//W3C//DTD SVG 1.1//EN" "http://www.w3.org/Graphics/SVG/1.1/DTD/svg11.dtd">
<svg version="1.1" id="Layer_1" xmlns="http://www.w3.org/2000/svg" xmlns:xlink="http://www.w3.org/1999/xlink" x="0px" y="0px"
	 width="752.963px" height="713.964px" viewBox="0 0 752.963 713.964" enable-background="new 0 0 752.963 713.964"
	 xml:space="preserve">
<g>
	<g>
		<g>
			<path fill="none" stroke="#CCCCCC" stroke-width="2" stroke-miterlimit="10" d="M462.481,425.982c0,3.312-2.688,6-6,6h-160
				c-3.313,0-6-2.688-6-6v-79.001c0-3.313,2.687-6,6-6h160c3.312,0,6,2.687,6,6V425.982z"/>
		</g>
		<circle fill="#26C1C5" cx="376.481" cy="340.982" r="6"/>
		<path fill="#26C1C5" d="M376.481,286.147c-0.732,0-2-0.06-2-0.165v52.22c0,1.537,0.806,2.78,2,2.78c1.192,0,2-1.243,2-2.78v-52.22
			C378.481,286.087,377.214,286.147,376.481,286.147"/>
		<g>
			<path fill="none" d="M409.927,267.09c0-18.396-15.155-33.362-33.552-33.362s-33.48,14.967-33.48,33.362
				c0,10.241,4.634,19.409,11.864,25.531l21.724-21.723l21.644,21.644C405.315,286.42,409.927,277.287,409.927,267.09z"/>
			<path fill="none" d="M422.899,267.09c0-25.55-20.976-46.336-46.524-46.336s-46.454,20.786-46.454,46.336
				c0,13.795,6.115,26.192,15.681,34.688l7.289-7.288c-7.685-6.625-12.743-16.44-12.743-27.399c0-19.959,16.45-36.142,36.41-36.142
				c19.961,0,36.207,16.183,36.207,36.142c0,11.034-4.819,20.904-12.561,27.531l7.076,7.076
				C416.808,293.205,422.899,280.841,422.899,267.09z"/>
			<path fill="none" d="M435.642,267.09c0-32.576-26.688-59.078-59.266-59.078s-59.198,26.502-59.198,59.078
				c0,17.307,7.542,32.887,19.416,43.695l7.143-7.142c-10.035-8.99-16.562-22.032-16.562-36.554
				c0-27.125,22.259-49.116,49.384-49.116c27.127,0,49.183,21.991,49.183,49.116c0,14.594-6.314,27.691-16.381,36.686l6.927,6.927
				C428.121,299.897,435.642,284.353,435.642,267.09z"/>
			<path opacity="0.2" fill="#26C1C5" enable-background="new    " d="M412.765,267.09c0-19.959-16.246-36.142-36.207-36.142
				c-19.959,0-36.41,16.183-36.41,36.142c0,10.959,5.059,20.774,12.743,27.399l1.868-1.868c-7.229-6.122-11.864-15.29-11.864-25.531
				c0-18.396,15.084-33.362,33.48-33.362s33.552,14.967,33.552,33.362c0,10.196-4.61,19.33-11.802,25.452l2.079,2.079
				C407.944,287.995,412.765,278.125,412.765,267.09z"/>
			<path opacity="0.2" fill="#26C1C5" enable-background="new    " d="M425.739,267.09c0-27.125-22.056-49.116-49.183-49.116
				c-27.125,0-49.384,21.991-49.384,49.116c0,14.521,6.528,27.563,16.562,36.554l1.865-1.866
				c-9.564-8.495-15.681-20.893-15.681-34.688c0-25.55,20.904-46.336,46.454-46.336s46.524,20.786,46.524,46.336
				c0,13.751-6.093,26.114-15.619,34.607l2.078,2.078C419.425,294.782,425.739,281.684,425.739,267.09z"/>
			<path opacity="0.2" fill="#26C1C5" enable-background="new    " d="M317.178,267.09c0-32.576,26.621-59.078,59.198-59.078
				c32.576,0,59.266,26.502,59.266,59.078c0,17.263-7.521,32.807-19.355,43.612l2.08,2.08
				c12.366-11.308,20.116-27.584,20.116-45.692c0-34.162-27.761-61.858-61.924-61.858c-34.162,0-62.128,27.696-62.128,61.858
				c0,18.142,7.734,34.446,20.103,45.757l2.061-2.062C324.72,299.977,317.178,284.397,317.178,267.09z"/>
		</g>
	</g>
	<circle fill="#26C1C5" cx="376.481" cy="264.982" r="19"/>
	<text transform="matrix(1 0 0 1 359.9858 371.981)" fill="#333333" font-family="'ArialMT'" font-size="16">Core</text>
	<text transform="matrix(1 0 0 1 342.8657 392.981)" fill="#808080" font-family="'ArialMT'" font-size="14">Start / Stop</text>
	<text transform="matrix(1 0 0 1 320.0957 410.981)" fill="#808080" font-family="'ArialMT'" font-size="14">Publish / Subscribe</text>
	<text transform="matrix(1 0 0 1 359.6099 505.981)" fill="#4D4D4D" font-family="'ArialMT'" font-size="16">Base</text>
	<text transform="matrix(1 0 0 1 323.1748 526.981)" fill="#B3B3B3" font-family="'ArialMT'" font-size="14">Utils, DOM, Events</text>
	<text transform="matrix(1 0 0 1 331.2959 544.981)" fill="#B3B3B3" font-family="'ArialMT'" font-size="14">Template, Data</text>
	<g>
		<path fill="none" stroke="#E6E6E6" stroke-width="2" stroke-miterlimit="10" d="M487.481,559.982c0,3.312-2.688,6-6,6h-209
			c-3.313,0-6-2.688-6-6v-89c0-3.312,2.687-6,6-6h209c3.312,0,6,2.688,6,6V559.982z"/>
		<circle fill="#666666" cx="376.481" cy="464.982" r="22"/>
		<path fill="#FFFFFF" d="M386.835,458.685l-3.321,3.32l-3.17-0.838l-0.837-3.17l3.32-3.32c-1.834-0.322-3.717,0.334-5.009,1.625
			c-1.495,1.496-1.86,3.703-1.202,5.512l-9.365,9.4c-2,2-1,2,0,3s1,2,3,0l9.447-9.318c1.809,0.658,4.016,0.293,5.512-1.203
			C386.501,462.402,387.004,460.365,386.835,458.685z"/>
	</g>
	<g>
		<text transform="matrix(1 0 0 1 347.7036 639.981)" fill="#4D4D4D" font-family="'ArialMT'" font-size="16">Vendors</text>
		<text transform="matrix(1 0 0 1 310.1816 660.981)" fill="#B3B3B3" font-family="'ArialMT'" font-size="14">Backbone, Underscore</text>
		<text transform="matrix(1 0 0 1 287.0884 678.981)" fill="#B3B3B3" font-family="'ArialMT'" font-size="14">Handlebars, jQuery, RequireJS</text>
		<path fill="none" stroke="#E6E6E6" stroke-width="2" stroke-miterlimit="10" d="M487.481,693.982c0,3.312-2.688,6-6,6h-209
			c-3.313,0-6-2.688-6-6v-89c0-3.312,2.687-6,6-6h209c3.312,0,6,2.688,6,6V693.982z"/>
		<g>
			<g>
				<path fill="#666666" d="M398.481,598.982c0,12.148-9.707,22-21.857,22s-22.143-9.852-22.143-22c0-12.15,9.992-22,22.143-22
					S398.481,586.832,398.481,598.982z"/>
			</g>
			<g>
				<path fill="#FFFFFF" d="M377.481,594.982v-7h-8c-0.455,0-1,0.547-1,1v20c0,0.453,0.545,1,1,1h14c0.454,0,1-0.547,1-1v-14
					H377.481z"/>
				<g>
					<polygon fill="#FFFFFF" points="378.481,593.982 384.481,593.982 378.481,587.982 					"/>
				</g>
			</g>
		</g>
	</g>
	<rect x="375.481" y="432.982" fill="#E6E6E6" width="2" height="10"/>
	<rect x="375.481" y="566.982" fill="#E6E6E6" width="2" height="10"/>
	<path fill="#D9E021" d="M570.481,245.982"/>
	<path fill="none" d="M376.481,264.982"/>
	<path fill="#D9E021" d="M452.481,83.982"/>
	<path fill="none" d="M376.481,264.982"/>
	<g>
		<path fill="none" stroke="#CCCCCC" stroke-width="2" stroke-miterlimit="10" d="M742.481,309.982c0,3.313-2.688,6-6,6h-160
			c-3.313,0-6-2.687-6-6v-128c0-3.313,2.687-6,6-6h160c3.312,0,6,2.687,6,6V309.982z"/>
		<g>
			<circle fill="#26C1C5" cx="570.481" cy="245.982" r="32.3"/>
			<g>
				<polygon fill="#FFFFFF" points="571.481,237.982 589.315,237.982 581.581,230.982 571.481,230.982 				"/>
				<polygon fill="#FFFFFF" points="569.481,230.982 559.515,230.982 551.646,237.982 569.481,237.982 				"/>
				<polygon fill="#FFFFFF" points="551.481,238.982 551.481,259.982 552.481,260.982 588.481,260.982 589.481,259.982 
					589.481,238.982 				"/>
			</g>
		</g>
	</g>
	<g>
		<path fill="none" stroke="#CCCCCC" stroke-width="2" stroke-miterlimit="10" d="M624.481,147.982c0,3.313-2.688,6-6,6h-160
			c-3.313,0-6-2.687-6-6v-128c0-3.313,2.687-6,6-6h160c3.312,0,6,2.687,6,6V147.982z"/>
		<g>
			<circle fill="#26C1C5" cx="452.481" cy="83.982" r="32.3"/>
			<g>
				<polygon fill="#FFFFFF" points="453.481,75.982 471.315,75.982 463.581,68.982 453.481,68.982 				"/>
				<polygon fill="#FFFFFF" points="451.481,68.982 441.515,68.982 433.647,75.982 451.481,75.982 				"/>
				<polygon fill="#FFFFFF" points="433.481,76.982 433.481,97.982 434.481,98.982 470.481,98.982 471.481,97.982 471.481,76.982 
									"/>
			</g>
		</g>
	</g>
	<g>
		<circle fill="#E6E6E6" cx="426.6" cy="148.792" r="6.5"/>
		<circle fill="#E6E6E6" cx="419.612" cy="165.38" r="4.5"/>
		<circle fill="#E6E6E6" cx="413.789" cy="179.204" r="2.5"/>
	</g>
	<g>
		<circle fill="#E6E6E6" cx="473.078" cy="256.024" r="6.5"/>
		<circle fill="#E6E6E6" cx="490.985" cy="254.195" r="4.501"/>
		<circle fill="#E6E6E6" cx="505.907" cy="252.669" r="2.5"/>
	</g>
	<g>
		<path fill="none" stroke="#CCCCCC" stroke-width="2" stroke-miterlimit="10" d="M10.481,309.982c0,3.313,2.687,6,6,6h160
			c3.313,0,6-2.687,6-6v-128c0-3.313-2.687-6-6-6h-160c-3.313,0-6,2.687-6,6V309.982z"/>
		<g>
			<circle fill="#26C1C5" cx="182.481" cy="245.982" r="32.3"/>
			<g>
				<polygon fill="#FFFFFF" points="181.481,237.982 163.647,237.982 171.382,230.982 181.481,230.982 				"/>
				<polygon fill="#FFFFFF" points="183.481,230.982 193.448,230.982 201.315,237.982 183.481,237.982 				"/>
				<polygon fill="#FFFFFF" points="201.481,238.982 201.481,259.982 200.481,260.982 164.481,260.982 163.481,259.982 
					163.481,238.982 				"/>
			</g>
		</g>
	</g>
	<g>
		<path fill="none" stroke="#CCCCCC" stroke-width="2" stroke-miterlimit="10" d="M128.481,147.982c0,3.313,2.687,6,6,6h160
			c3.313,0,6-2.687,6-6v-128c0-3.313-2.687-6-6-6h-160c-3.313,0-6,2.687-6,6V147.982L128.481,147.982z"/>
		<g>
			<circle fill="#26C1C5" cx="300.481" cy="83.982" r="32.3"/>
			<g>
				<polygon fill="#FFFFFF" points="299.481,75.982 281.647,75.982 289.382,68.982 299.481,68.982 				"/>
				<polygon fill="#FFFFFF" points="301.481,68.982 311.448,68.982 319.315,75.982 301.481,75.982 				"/>
				<polygon fill="#FFFFFF" points="319.481,76.982 319.481,97.982 318.481,98.982 282.481,98.982 281.481,97.982 281.481,76.982 
									"/>
			</g>
		</g>
	</g>
	<g>
		<circle fill="#E6E6E6" cx="337.041" cy="173.965" r="6.5"/>
		<circle fill="#E6E6E6" cx="330.053" cy="157.377" r="4.5"/>
		<circle fill="#E6E6E6" cx="324.23" cy="143.553" r="2.5"/>
	</g>
	<g>
		<circle fill="#E6E6E6" cx="251.442" cy="256.243" r="6.5"/>
		<circle fill="#E6E6E6" cx="269.35" cy="258.072" r="4.501"/>
		<circle fill="#E6E6E6" cx="284.271" cy="259.597" r="2.5"/>
	</g>
	<g>
		<g>
			<path fill="#666666" d="M122.878,198.982H37.954c-2.094,0-3.473,2.362-3.473,4.466v14.534h93v-14.534
				C127.481,201.344,124.972,198.982,122.878,198.982z M42.772,212.656c-1.595,0-2.891-1.304-2.891-2.906s1.296-2.906,2.891-2.906
				c1.594,0,2.891,1.304,2.891,2.906S44.366,212.656,42.772,212.656z M117.998,212.656c-1.594,0-2.891-1.304-2.891-2.906
				s1.297-2.906,2.891-2.906c1.593,0,2.891,1.304,2.891,2.906S119.591,212.656,117.998,212.656z"/>
		</g>
		<path fill="#CCCCCC" d="M34.481,217.982v70.844c0,2.104,1.379,3.156,3.473,3.156h84.924c2.094,0,4.604-1.052,4.604-3.156v-70.844
			H34.481z"/>
	</g>
	<g>
		<path fill="#666666" d="M598.231,76.982h-48c-1.656,0-2.75,1.198-2.75,2.855v30c0,1.657,1.094,3.145,2.75,3.145h29.703
			l8.788,8.654c1.479,1.479,2.759,0.911,2.759-1.181v-7.474h6.75c1.655,0,3.25-1.487,3.25-3.145v-30
			C601.481,78.18,599.888,76.982,598.231,76.982z"/>
		<path fill="#CCCCCC" d="M544.481,77.982c0-2.762,1.237-4,4-4h31V48.837c0-1.657-1.595-2.855-3.25-2.855h-65
			c-1.656,0-2.75,1.199-2.75,2.855v42c0,1.656,1.094,3.145,2.75,3.145h10.25v9.855c0,2.75,1.466,3.481,3.409,1.537l11.341-11.393
			h8.25V77.982z"/>
	</g>
	<g>
		<path fill="#666666" d="M709.481,216.982v-9h10v-3h-93v3h10v9h-10v3h93v-3H709.481z M654.481,216.982h-16v-9h16V216.982z
			 M672.481,216.982h-16v-9h16V216.982z M689.481,216.982h-15v-9h15V216.982z M707.481,216.982h-16v-9h16V216.982z"/>
		<path fill="#666666" d="M709.481,283.982v-9h10v-3h-93v3h10v9h-10v3h93v-3H709.481z M654.481,283.982h-16v-9h16V283.982z
			 M672.481,283.982h-16v-9h16V283.982z M689.481,283.982h-15v-9h15V283.982z M707.481,283.982h-16v-9h16V283.982z"/>
		<rect x="626.481" y="219.982" fill="#CCCCCC" width="93" height="52"/>
		<polygon fill="#666666" points="668.481,239.85 678.481,245.623 668.481,251.397 		"/>
	</g>
	<g>
		<g>
			<path fill="#CCCCCC" d="M233.481,126.982c0,1.657-1.343,3-3,3h-65c-1.657,0-3-1.343-3-3v-75c0-1.657,1.343-3,3-3h65
				c1.657,0,3,1.343,3,3V126.982z"/>
			<path fill="#666666" d="M211.731,40.982h-8.75c-0.712-3-2.867-4-5.417-4s-4.705,1-5.417,4h-8.417c-1.657,0-3.25,1.093-3.25,2.75
				v10.25h34v-10.25C214.481,42.075,213.388,40.982,211.731,40.982z M197.565,45.732c-1.86,0-3.583-1.474-3.583-3.333
				c0-1.86,1.724-3.667,3.583-3.667s3.417,1.807,3.417,3.667C200.981,44.258,199.425,45.732,197.565,45.732z"/>
		</g>
		<rect x="175.481" y="74.982" fill="#A5A5A5" width="53" height="3"/>
		<rect x="175.481" y="84.982" fill="#A5A5A5" width="42" height="3"/>
		<rect x="175.481" y="64.982" fill="#A5A5A5" width="49" height="3"/>
		<path fill="#A5A5A5" d="M171.481,73.982h-3c-0.552,0-1,0.448-1,1v3c0,0.552,0.448,1,1,1h3c0.552,0,1-0.448,1-1v-3
			C172.481,74.43,172.034,73.982,171.481,73.982z M171.481,77.982h-3v-3h3V77.982z"/>
		<path fill="#A5A5A5" d="M171.481,63.982h-3c-0.552,0-1,0.448-1,1v3c0,0.552,0.448,1,1,1h3c0.552,0,1-0.448,1-1v-3
			C172.481,64.43,172.034,63.982,171.481,63.982z M171.481,67.982h-3v-3h3V67.982z"/>
		<path fill="#A5A5A5" d="M171.481,83.982h-3c-0.552,0-1,0.448-1,1v3c0,0.552,0.448,1,1,1h3c0.552,0,1-0.448,1-1v-3
			C172.481,84.43,172.034,83.982,171.481,83.982z M171.481,87.982h-3v-3h3V87.982z"/>
	</g>
</g>
</svg>
