<?xml version="1.0" encoding="UTF-8" standalone="no"?>
<svg width="512px" height="512px" viewBox="0 0 512 512" version="1.1" xmlns="http://www.w3.org/2000/svg" xmlns:xlink="http://www.w3.org/1999/xlink" xmlns:sketch="http://www.bohemiancoding.com/sketch/ns">
    <defs></defs>
    <g id="Page 1" stroke="none" stroke-width="1" fill="none" fill-rule="evenodd">
        <g id="Group" fill="#000000">
            <path d="M427,0 L85,0 C38.25,0 0,38.25 0,85 L0,427 C0,473.75 38.25,512 85,512 L427,512 C473.75,512 512,473.75 512,427 L512,85 C512,38.25 473.75,0 427,0 L427,0 Z M448,224.025 L448,352 L448,416 C448,433.6 433.6,448 416,448 L96,448 C78.4,448 64,433.6 64,416 L64,352 L64,224.025 L64,224 L114.054,224 C111.733,234.301 110.5,245.008 110.5,256 C110.5,336.229 175.771,401.5 256,401.5 C336.229,401.5 401.5,336.229 401.5,256 C401.5,245.008 400.268,234.301 397.946,224 L448,224 Z M256,354 C201.876092,354 158,310.123908 158,256 C158,201.876092 201.876092,158 256,158 C310.123908,158 354,201.876092 354,256 C354,310.123908 310.123908,354 256,354 Z M348.001962,41 L438.998038,41 C445.071871,41 450,45.9257463 450,52.0019623 L450,142.998038 C450,149.071871 445.074254,154 438.998038,154 L348.001962,154 C341.928129,154 337,149.074254 337,142.998038 L337,52.0019623 C337,45.9281292 341.925746,41 348.001962,41 Z M348.001962,41" id="Shape"></path>
        </g>
    </g>
</svg>
